<svg width="2000" height="1089" viewBox="0 0 2000 1089" fill="none" xmlns="http://www.w3.org/2000/svg">
<rect width="2000" height="1088.1" fill="#18191A"/>
<mask id="mask0" mask-type="alpha" maskUnits="userSpaceOnUse" x="0" y="0" width="2000" height="1089">
<rect width="2000" height="1088.1" fill="#18191A"/>
</mask>
<g mask="url(#mask0)">
<mask id="mask1" mask-type="alpha" maskUnits="userSpaceOnUse" x="-348" y="50" width="557" height="561">
<ellipse cx="-69.5601" cy="330.245" rx="278.059" ry="280.245" fill="#C4C4C4"/>
</mask>
<g mask="url(#mask1)">
<g clip-path="url(#clip0)">
<path d="M136.074 63.7471C137.114 64.6569 138.818 64.5089 139.764 63.4264C140.71 62.344 140.629 60.6364 139.589 59.7266C138.548 58.8169 136.845 58.9649 135.899 60.0474C134.952 61.1298 135.033 62.8374 136.074 63.7471Z" fill="#FF6700" fill-opacity="0.5"/>
<path d="M157.481 82.4615C158.521 83.3712 160.224 83.2231 161.171 82.1407C162.117 81.0583 162.036 79.3507 160.995 78.4409C159.955 77.5312 158.252 77.6793 157.306 78.7617C156.359 79.8442 156.44 81.5517 157.481 82.4615Z" fill="#FF6700" fill-opacity="0.5"/>
<path d="M178.886 101.176C179.927 102.086 181.63 101.938 182.576 100.855C183.523 99.7729 183.442 98.0653 182.401 97.1556C181.361 96.2458 179.658 96.3939 178.711 97.4763C177.765 98.5588 177.846 100.266 178.886 101.176Z" fill="#FF6700" fill-opacity="0.5"/>
<path d="M200.293 119.89C201.36 120.824 203.012 120.68 203.983 119.57C204.953 118.459 204.875 116.803 203.808 115.87C202.74 114.937 201.088 115.08 200.118 116.191C199.147 117.301 199.226 118.957 200.293 119.89Z" fill="#FF6700" fill-opacity="0.5"/>
<path d="M84.4972 57.9432C85.5378 58.8529 87.2408 58.7049 88.1872 57.6224C89.1335 56.54 89.0527 54.8324 88.0121 53.9226C86.9715 53.0129 85.2684 53.161 84.3221 54.2434C83.3758 55.3259 83.4566 57.0334 84.4972 57.9432Z" fill="#FF6700" fill-opacity="0.5"/>
<path d="M105.903 76.6575C106.944 77.5673 108.647 77.4192 109.593 76.3368C110.54 75.2543 110.459 73.5467 109.418 72.637C108.378 71.7273 106.675 71.8753 105.728 72.9578C104.782 74.0402 104.863 75.7478 105.903 76.6575Z" fill="#FF6700" fill-opacity="0.5"/>
<path d="M127.31 95.3719C128.377 96.305 130.029 96.1614 131 95.0511C131.97 93.9409 131.892 92.2845 130.825 91.3514C129.757 90.4183 128.105 90.5619 127.135 91.6721C126.164 92.7824 126.242 94.4388 127.31 95.3719Z" fill="#FF6700" fill-opacity="0.5"/>
<path d="M148.716 114.086C149.756 114.996 151.46 114.848 152.406 113.765C153.352 112.683 153.271 110.975 152.231 110.066C151.19 109.156 149.487 109.304 148.541 110.386C147.595 111.469 147.675 113.177 148.716 114.086Z" fill="#FF6700" fill-opacity="0.5"/>
<path d="M170.122 132.801C171.163 133.711 172.866 133.563 173.812 132.48C174.759 131.398 174.678 129.69 173.637 128.78C172.597 127.871 170.894 128.019 169.947 129.101C169.001 130.184 169.082 131.891 170.122 132.801Z" fill="#FF6700" fill-opacity="0.5"/>
<path d="M191.528 151.515C192.569 152.425 194.272 152.277 195.218 151.194C196.165 150.112 196.084 148.404 195.043 147.495C194.003 146.585 192.3 146.733 191.353 147.815C190.407 148.898 190.488 150.605 191.528 151.515Z" fill="#FF6700" fill-opacity="0.5"/>
<path d="M32.9205 52.1387C33.9611 53.0485 35.6642 52.9004 36.6105 51.818C37.5568 50.7355 37.476 49.028 36.4355 48.1182C35.3949 47.2085 33.6918 47.3565 32.7455 48.439C31.7991 49.5214 31.8799 51.229 32.9205 52.1387Z" fill="#FF6700" fill-opacity="0.5"/>
<path d="M54.3268 70.8533C55.3673 71.7631 57.0704 71.615 58.0167 70.5326C58.9631 69.4501 58.8823 67.7425 57.8417 66.8328C56.8011 65.9231 55.098 66.0711 54.1517 67.1536C53.2054 68.236 53.2862 69.9436 54.3268 70.8533Z" fill="#FF6700" fill-opacity="0.5"/>
<path d="M75.733 89.5677C76.7736 90.4774 78.4767 90.3294 79.423 89.2469C80.3693 88.1645 80.2885 86.4569 79.248 85.5472C78.2074 84.6374 76.5043 84.7855 75.558 85.8679C74.6116 86.9504 74.6924 88.658 75.733 89.5677Z" fill="#FF6700" fill-opacity="0.5"/>
<path d="M97.1393 108.282C98.1799 109.192 99.8829 109.044 100.829 107.961C101.776 106.879 101.695 105.171 100.654 104.262C99.6136 103.352 97.9105 103.5 96.9642 104.582C96.0179 105.665 96.0987 107.372 97.1393 108.282Z" fill="#FF6700" fill-opacity="0.5"/>
<path d="M118.545 126.997C119.586 127.906 121.289 127.758 122.235 126.676C123.182 125.593 123.101 123.886 122.06 122.976C121.02 122.066 119.317 122.214 118.37 123.297C117.424 124.379 117.505 126.087 118.545 126.997Z" fill="#FF6700" fill-opacity="0.5"/>
<path d="M139.952 145.711C140.992 146.621 142.695 146.473 143.642 145.39C144.588 144.308 144.507 142.6 143.467 141.69C142.426 140.781 140.723 140.929 139.777 142.011C138.83 143.094 138.911 144.801 139.952 145.711Z" fill="#FF6700" fill-opacity="0.5"/>
<path d="M161.358 164.425C162.399 165.335 164.102 165.187 165.048 164.105C165.994 163.022 165.914 161.315 164.873 160.405C163.832 159.495 162.129 159.643 161.183 160.726C160.237 161.808 160.317 163.516 161.358 164.425Z" fill="#FF6700" fill-opacity="0.5"/>
<path d="M182.764 183.14C183.805 184.05 185.508 183.902 186.454 182.819C187.401 181.737 187.32 180.029 186.279 179.119C185.239 178.21 183.536 178.358 182.589 179.44C181.643 180.523 181.724 182.23 182.764 183.14Z" fill="#FF6700" fill-opacity="0.5"/>
<path d="M204.171 201.854C205.211 202.764 206.914 202.616 207.86 201.533C208.807 200.451 208.726 198.743 207.685 197.834C206.645 196.924 204.942 197.072 203.995 198.154C203.049 199.237 203.13 200.944 204.171 201.854Z" fill="#FF6700" fill-opacity="0.5"/>
<path d="M2.75008 65.0491C3.79067 65.9589 5.49374 65.8108 6.44007 64.7284C7.3864 63.6459 7.30561 61.9383 6.26502 61.0286C5.22444 60.1189 3.52138 60.2669 2.57505 61.3494C1.62872 62.4318 1.7095 64.1394 2.75008 65.0491Z" fill="#FF6700" fill-opacity="0.5"/>
<path d="M24.1563 83.7637C25.1969 84.6735 26.9 84.5254 27.8463 83.443C28.7926 82.3605 28.7118 80.6529 27.6713 79.7432C26.6307 78.8335 24.9276 78.9815 23.9813 80.064C23.035 81.1464 23.1158 82.854 24.1563 83.7637Z" fill="#FF6700" fill-opacity="0.5"/>
<path d="M45.5626 102.478C46.6032 103.388 48.3063 103.24 49.2526 102.157C50.1989 101.075 50.1181 99.3673 49.0775 98.4576C48.0369 97.5478 46.3339 97.6959 45.3876 98.7783C44.4412 99.8608 44.522 101.568 45.5626 102.478Z" fill="#FF6700" fill-opacity="0.5"/>
<path d="M66.9688 121.192C68.0094 122.102 69.7125 121.954 70.6588 120.872C71.6051 119.789 71.5243 118.082 70.4838 117.172C69.4432 116.262 67.7401 116.41 66.7938 117.493C65.8475 118.575 65.9283 120.283 66.9688 121.192Z" fill="#FF6700" fill-opacity="0.5"/>
<path d="M88.3751 139.907C89.4157 140.817 91.1188 140.668 92.0651 139.586C93.0114 138.504 92.9306 136.796 91.89 135.886C90.8495 134.977 89.1464 135.125 88.2001 136.207C87.2537 137.289 87.3345 138.997 88.3751 139.907Z" fill="#FF6700" fill-opacity="0.5"/>
<path d="M109.781 158.621C110.822 159.531 112.525 159.383 113.471 158.3C114.418 157.218 114.337 155.51 113.296 154.601C112.256 153.691 110.553 153.839 109.606 154.921C108.66 156.004 108.741 157.711 109.781 158.621Z" fill="#FF6700" fill-opacity="0.5"/>
<path d="M131.188 177.336C132.228 178.245 133.931 178.097 134.878 177.015C135.824 175.932 135.743 174.225 134.703 173.315C133.662 172.405 131.959 172.553 131.013 173.636C130.066 174.718 130.147 176.426 131.188 177.336Z" fill="#FF6700" fill-opacity="0.5"/>
<path d="M152.594 196.05C153.634 196.96 155.337 196.812 156.284 195.729C157.23 194.647 157.149 192.939 156.109 192.03C155.068 191.12 153.365 191.268 152.419 192.35C151.472 193.433 151.553 195.14 152.594 196.05Z" fill="#FF6700" fill-opacity="0.5"/>
<path d="M174 214.764C175.041 215.674 176.744 215.526 177.69 214.444C178.636 213.361 178.556 211.654 177.515 210.744C176.474 209.834 174.771 209.982 173.825 211.065C172.879 212.147 172.96 213.855 174 214.764Z" fill="#FF6700" fill-opacity="0.5"/>
<path d="M195.407 233.479C196.447 234.389 198.15 234.241 199.097 233.158C200.043 232.076 199.962 230.368 198.922 229.459C197.881 228.549 196.178 228.697 195.232 229.779C194.285 230.862 194.366 232.569 195.407 233.479Z" fill="#FF6700" fill-opacity="0.5"/>
<path d="M15.3922 115.388C16.4328 116.298 18.1359 116.15 19.0822 115.068C20.0285 113.985 19.9477 112.277 18.9071 111.368C17.8665 110.458 16.1635 110.606 15.2171 111.688C14.2708 112.771 14.3516 114.479 15.3922 115.388Z" fill="#FF6700" fill-opacity="0.5"/>
<path d="M36.7984 134.103C37.839 135.012 39.5421 134.864 40.4884 133.782C41.4347 132.699 41.354 130.992 40.3134 130.082C39.2728 129.172 37.5697 129.32 36.6234 130.403C35.6771 131.485 35.7579 133.193 36.7984 134.103Z" fill="#FF6700" fill-opacity="0.5"/>
<path d="M58.2047 152.817C59.2453 153.727 60.9484 153.579 61.8947 152.496C62.841 151.414 62.7602 149.706 61.7196 148.797C60.6791 147.887 58.976 148.035 58.0296 149.117C57.0833 150.2 57.1641 151.907 58.2047 152.817Z" fill="#FF6700" fill-opacity="0.5"/>
<path d="M79.6109 171.531C80.6515 172.441 82.3546 172.293 83.3009 171.211C84.2472 170.128 84.1665 168.421 83.1259 167.511C82.0853 166.601 80.3822 166.749 79.4359 167.832C78.4896 168.914 78.5703 170.622 79.6109 171.531Z" fill="#FF6700" fill-opacity="0.5"/>
<path d="M101.017 190.246C102.058 191.156 103.761 191.008 104.707 189.925C105.654 188.843 105.573 187.135 104.532 186.225C103.492 185.316 101.788 185.464 100.842 186.546C99.8958 187.629 99.9766 189.336 101.017 190.246Z" fill="#FF6700" fill-opacity="0.5"/>
<path d="M122.423 208.961C123.464 209.87 125.167 209.722 126.113 208.64C127.06 207.557 126.979 205.85 125.938 204.94C124.898 204.03 123.195 204.178 122.248 205.261C121.302 206.343 121.383 208.051 122.423 208.961Z" fill="#FF6700" fill-opacity="0.5"/>
<path d="M143.83 227.675C144.87 228.585 146.573 228.437 147.52 227.354C148.466 226.272 148.385 224.564 147.345 223.654C146.304 222.745 144.601 222.893 143.655 223.975C142.708 225.058 142.789 226.765 143.83 227.675Z" fill="#FF6700" fill-opacity="0.5"/>
<path d="M165.236 246.389C166.277 247.299 167.98 247.151 168.926 246.068C169.872 244.986 169.791 243.278 168.751 242.369C167.71 241.459 166.007 241.607 165.061 242.689C164.115 243.772 164.195 245.479 165.236 246.389Z" fill="#FF6700" fill-opacity="0.5"/>
<path d="M186.642 265.104C187.683 266.013 189.386 265.865 190.332 264.783C191.279 263.7 191.198 261.993 190.157 261.083C189.117 260.173 187.414 260.321 186.467 261.404C185.521 262.486 185.602 264.194 186.642 265.104Z" fill="#FF6700" fill-opacity="0.5"/>
<path d="M208.048 283.818C209.089 284.728 210.792 284.58 211.738 283.497C212.685 282.415 212.604 280.707 211.563 279.797C210.523 278.888 208.82 279.036 207.873 280.118C206.927 281.201 207.008 282.908 208.048 283.818Z" fill="#FF6700" fill-opacity="0.5"/>
<path d="M6.62755 147.013C7.66814 147.923 9.3712 147.775 10.3175 146.692C11.2639 145.61 11.1831 143.902 10.1425 142.992C9.10188 142.083 7.39882 142.231 6.4525 143.313C5.50618 144.396 5.58696 146.103 6.62755 147.013Z" fill="#FF6700" fill-opacity="0.5"/>
<path d="M28.0343 165.727C29.0749 166.637 30.7779 166.489 31.7242 165.407C32.6706 164.324 32.5898 162.617 31.5492 161.707C30.5086 160.797 28.8056 160.945 27.8592 162.028C26.9129 163.11 26.9937 164.818 28.0343 165.727Z" fill="#FF6700" fill-opacity="0.5"/>
<path d="M49.4405 184.442C50.5078 185.375 52.1598 185.231 53.1305 184.121C54.1011 183.011 54.0227 181.354 52.9555 180.421C51.8882 179.488 50.2361 179.632 49.2655 180.742C48.2948 181.852 48.3732 183.509 49.4405 184.442Z" fill="#FF6700" fill-opacity="0.5"/>
<path d="M70.8468 203.156C71.8873 204.066 73.5904 203.918 74.5367 202.836C75.483 201.753 75.4023 200.046 74.3617 199.136C73.3211 198.226 71.6181 198.374 70.6717 199.457C69.7254 200.539 69.8062 202.247 70.8468 203.156Z" fill="#FF6700" fill-opacity="0.5"/>
<path d="M92.2531 221.871C93.2936 222.78 94.9967 222.632 95.9431 221.55C96.8894 220.468 96.8086 218.76 95.768 217.85C94.7274 216.94 93.0243 217.088 92.078 218.171C91.1316 219.253 91.2125 220.961 92.2531 221.871Z" fill="#FF6700" fill-opacity="0.5"/>
<path d="M113.659 240.585C114.7 241.495 116.403 241.347 117.349 240.264C118.296 239.182 118.215 237.474 117.174 236.564C116.134 235.655 114.431 235.803 113.484 236.885C112.538 237.968 112.619 239.675 113.659 240.585Z" fill="#FF6700" fill-opacity="0.5"/>
<path d="M135.065 259.299C136.106 260.209 137.809 260.061 138.755 258.979C139.702 257.896 139.621 256.189 138.58 255.279C137.54 254.369 135.837 254.517 134.89 255.6C133.944 256.682 134.025 258.39 135.065 259.299Z" fill="#FF6700" fill-opacity="0.5"/>
<path d="M156.472 278.014C157.539 278.947 159.191 278.804 160.162 277.693C161.132 276.583 161.054 274.927 159.987 273.993C158.919 273.06 157.267 273.204 156.297 274.314C155.326 275.424 155.405 277.081 156.472 278.014Z" fill="#FF6700" fill-opacity="0.5"/>
<path d="M177.878 296.728C178.919 297.638 180.622 297.49 181.568 296.408C182.514 295.325 182.434 293.618 181.393 292.708C180.352 291.798 178.649 291.946 177.703 293.029C176.757 294.111 176.837 295.819 177.878 296.728Z" fill="#FF6700" fill-opacity="0.5"/>
<path d="M199.284 315.443C200.325 316.352 202.028 316.204 202.974 315.122C203.921 314.039 203.84 312.332 202.799 311.422C201.759 310.512 200.056 310.66 199.109 311.743C198.163 312.825 198.244 314.533 199.284 315.443Z" fill="#FF6700" fill-opacity="0.5"/>
<path d="M-2.13612 178.638C-1.09554 179.547 0.607512 179.399 1.55384 178.317C2.50017 177.235 2.41939 175.527 1.3788 174.617C0.338221 173.708 -1.36484 173.856 -2.31117 174.938C-3.25749 176.02 -3.1767 177.728 -2.13612 178.638Z" fill="#FF6700" fill-opacity="0.5"/>
<path d="M19.2702 197.352C20.3107 198.262 22.0138 198.114 22.9601 197.031C23.9065 195.949 23.8257 194.241 22.7851 193.332C21.7445 192.422 20.0414 192.57 19.0951 193.652C18.1488 194.735 18.2296 196.442 19.2702 197.352Z" fill="#FF6700" fill-opacity="0.5"/>
<path d="M40.6764 216.066C41.7169 216.976 43.42 216.828 44.3663 215.746C45.3127 214.663 45.2319 212.956 44.1913 212.046C43.1507 211.136 41.4477 211.284 40.5013 212.367C39.555 213.449 39.6358 215.157 40.6764 216.066Z" fill="#FF6700" fill-opacity="0.5"/>
<path d="M62.0826 234.781C63.1232 235.691 64.8263 235.543 65.7726 234.46C66.7189 233.378 66.6381 231.67 65.5976 230.76C64.557 229.851 62.8539 229.999 61.9076 231.081C60.9612 232.164 61.042 233.871 62.0826 234.781Z" fill="#FF6700" fill-opacity="0.5"/>
<path d="M83.4889 253.495C84.5562 254.428 86.2082 254.285 87.1789 253.174C88.1495 252.064 88.0711 250.408 87.0038 249.475C85.9365 248.542 84.2845 248.685 83.3138 249.795C82.3432 250.906 82.4216 252.562 83.4889 253.495Z" fill="#FF6700" fill-opacity="0.5"/>
<path d="M104.895 272.21C105.936 273.12 107.639 272.971 108.585 271.889C109.531 270.807 109.451 269.099 108.41 268.189C107.369 267.28 105.666 267.428 104.72 268.51C103.774 269.592 103.855 271.3 104.895 272.21Z" fill="#FF6700" fill-opacity="0.5"/>
<path d="M126.301 290.924C127.342 291.834 129.045 291.686 129.991 290.603C130.938 289.521 130.857 287.813 129.816 286.904C128.776 285.994 127.073 286.142 126.126 287.224C125.18 288.307 125.261 290.014 126.301 290.924Z" fill="#FF6700" fill-opacity="0.5"/>
<path d="M147.708 309.639C148.748 310.548 150.451 310.4 151.397 309.318C152.344 308.235 152.263 306.528 151.222 305.618C150.182 304.708 148.479 304.857 147.533 305.939C146.586 307.021 146.667 308.729 147.708 309.639Z" fill="#FF6700" fill-opacity="0.5"/>
<path d="M169.114 328.353C170.154 329.263 171.857 329.115 172.804 328.032C173.75 326.95 173.669 325.242 172.629 324.333C171.588 323.423 169.885 323.571 168.939 324.653C167.992 325.736 168.073 327.443 169.114 328.353Z" fill="#FF6700" fill-opacity="0.5"/>
<path d="M190.52 347.067C191.587 348.001 193.239 347.857 194.21 346.747C195.181 345.636 195.102 343.98 194.035 343.047C192.968 342.114 191.316 342.257 190.345 343.368C189.374 344.478 189.453 346.134 190.52 347.067Z" fill="#FF6700" fill-opacity="0.5"/>
<path d="M10.5059 228.977C11.5465 229.886 13.2496 229.738 14.1959 228.656C15.1423 227.573 15.0615 225.866 14.0209 224.956C12.9803 224.046 11.2772 224.194 10.3309 225.277C9.38458 226.359 9.46537 228.067 10.5059 228.977Z" fill="#FF6700" fill-opacity="0.5"/>
<path d="M31.9122 247.691C32.9528 248.601 34.6558 248.453 35.6021 247.37C36.5485 246.288 36.4677 244.58 35.4271 243.67C34.3866 242.761 32.6835 242.909 31.7372 243.991C30.7908 245.074 30.8716 246.781 31.9122 247.691Z" fill="#FF6700" fill-opacity="0.5"/>
<path d="M53.3185 266.406C54.359 267.315 56.0621 267.167 57.0085 266.085C57.9548 265.002 57.874 263.295 56.8334 262.385C55.7928 261.475 54.0897 261.623 53.1434 262.706C52.1971 263.788 52.2779 265.496 53.3185 266.406Z" fill="#FF6700" fill-opacity="0.5"/>
<path d="M74.7242 285.12C75.7648 286.03 77.4678 285.882 78.4142 284.799C79.3605 283.717 79.2797 282.009 78.2391 281.099C77.1985 280.19 75.4955 280.338 74.5492 281.42C73.6029 282.503 73.6836 284.21 74.7242 285.12Z" fill="#FF6700" fill-opacity="0.5"/>
<path d="M96.1309 303.835C97.1715 304.744 98.8746 304.596 99.8209 303.514C100.767 302.431 100.686 300.724 99.6459 299.814C98.6053 298.904 96.9022 299.052 95.9559 300.135C95.0096 301.217 95.0904 302.925 96.1309 303.835Z" fill="#FF6700" fill-opacity="0.5"/>
<path d="M117.537 322.549C118.578 323.459 120.281 323.311 121.227 322.228C122.174 321.146 122.093 319.438 121.052 318.528C120.012 317.619 118.308 317.767 117.362 318.849C116.416 319.932 116.497 321.639 117.537 322.549Z" fill="#FF6700" fill-opacity="0.5"/>
<path d="M138.943 341.263C139.984 342.173 141.687 342.025 142.633 340.942C143.58 339.86 143.499 338.152 142.458 337.243C141.418 336.333 139.715 336.481 138.768 337.563C137.822 338.646 137.903 340.354 138.943 341.263Z" fill="#FF6700" fill-opacity="0.5"/>
<path d="M160.35 359.978C161.39 360.887 163.093 360.739 164.04 359.657C164.986 358.574 164.905 356.867 163.865 355.957C162.824 355.047 161.121 355.195 160.175 356.278C159.228 357.36 159.309 359.068 160.35 359.978Z" fill="#FF6700" fill-opacity="0.5"/>
<path d="M181.756 378.692C182.796 379.602 184.5 379.454 185.446 378.371C186.392 377.289 186.311 375.581 185.271 374.671C184.23 373.762 182.527 373.91 181.581 374.992C180.635 376.075 180.715 377.782 181.756 378.692Z" fill="#FF6700" fill-opacity="0.5"/>
<path d="M203.162 397.407C204.203 398.316 205.906 398.168 206.852 397.086C207.799 396.003 207.718 394.296 206.677 393.386C205.637 392.476 203.933 392.624 202.987 393.707C202.041 394.789 202.122 396.497 203.162 397.407Z" fill="#FF6700" fill-opacity="0.5"/>
<path d="M1.74128 260.601C2.78186 261.511 4.48494 261.363 5.43126 260.281C6.37759 259.198 6.2968 257.491 5.25622 256.581C4.21564 255.671 2.51259 255.819 1.56626 256.902C0.619929 257.984 0.700696 259.692 1.74128 260.601Z" fill="#FF6700" fill-opacity="0.5"/>
<path d="M23.148 279.316C24.1886 280.226 25.8917 280.078 26.838 278.995C27.7844 277.913 27.7036 276.205 26.663 275.295C25.6224 274.386 23.9193 274.534 22.973 275.616C22.0267 276.699 22.1075 278.406 23.148 279.316Z" fill="#FF6700" fill-opacity="0.5"/>
<path d="M44.5543 298.03C45.5948 298.94 47.2979 298.792 48.2443 297.71C49.1906 296.627 49.1098 294.92 48.0692 294.01C47.0287 293.1 45.3256 293.248 44.3792 294.331C43.4329 295.413 43.5137 297.121 44.5543 298.03Z" fill="#FF6700" fill-opacity="0.5"/>
<path d="M65.9601 316.745C67.0007 317.654 68.7037 317.506 69.65 316.424C70.5964 315.341 70.5156 313.634 69.475 312.724C68.4344 311.814 66.7313 311.962 65.785 313.045C64.8387 314.127 64.9195 315.835 65.9601 316.745Z" fill="#FF6700" fill-opacity="0.5"/>
<path d="M87.3668 335.459C88.4074 336.369 90.1105 336.221 91.0568 335.138C92.0031 334.056 91.9223 332.348 90.8817 331.439C89.8412 330.529 88.1381 330.677 87.1917 331.759C86.2454 332.842 86.3262 334.549 87.3668 335.459Z" fill="#FF6700" fill-opacity="0.5"/>
<path d="M108.773 354.174C109.814 355.083 111.517 354.935 112.463 353.853C113.409 352.77 113.329 351.063 112.288 350.153C111.247 349.243 109.544 349.391 108.598 350.474C107.652 351.556 107.732 353.264 108.773 354.174Z" fill="#FF6700" fill-opacity="0.5"/>
<path d="M130.179 372.888C131.22 373.797 132.923 373.649 133.869 372.567C134.816 371.485 134.735 369.777 133.694 368.867C132.654 367.957 130.951 368.106 130.004 369.188C129.058 370.27 129.139 371.978 130.179 372.888Z" fill="#FF6700" fill-opacity="0.5"/>
<path d="M151.586 391.602C152.626 392.512 154.329 392.364 155.275 391.282C156.222 390.199 156.141 388.492 155.1 387.582C154.06 386.672 152.357 386.82 151.41 387.903C150.464 388.985 150.545 390.693 151.586 391.602Z" fill="#FF6700" fill-opacity="0.5"/>
<path d="M172.992 410.317C174.032 411.227 175.735 411.079 176.681 409.996C177.628 408.914 177.547 407.206 176.507 406.296C175.466 405.387 173.763 405.535 172.816 406.617C171.87 407.7 171.951 409.407 172.992 410.317Z" fill="#FF6700" fill-opacity="0.5"/>
<path d="M194.398 429.031C195.439 429.941 197.142 429.793 198.088 428.711C199.034 427.628 198.954 425.921 197.913 425.011C196.872 424.101 195.169 424.249 194.223 425.332C193.277 426.414 193.357 428.122 194.398 429.031Z" fill="#FF6700" fill-opacity="0.5"/>
<path d="M14.3839 310.94C15.4245 311.85 17.1275 311.702 18.0739 310.62C19.0202 309.537 18.9394 307.83 17.8988 306.92C16.8582 306.01 15.1552 306.158 14.2088 307.241C13.2625 308.323 13.3433 310.031 14.3839 310.94Z" fill="#FF6700" fill-opacity="0.5"/>
<path d="M35.7897 329.655C36.8303 330.564 38.5334 330.416 39.4797 329.334C40.426 328.252 40.3452 326.544 39.3046 325.634C38.264 324.725 36.561 324.873 35.6146 325.955C34.6683 327.037 34.7491 328.745 35.7897 329.655Z" fill="#FF6700" fill-opacity="0.5"/>
<path d="M57.1964 348.369C58.237 349.279 59.9401 349.131 60.8864 348.049C61.8327 346.966 61.7519 345.259 60.7113 344.349C59.6707 343.439 57.9677 343.587 57.0214 344.67C56.0751 345.752 56.1559 347.46 57.1964 348.369Z" fill="#FF6700" fill-opacity="0.5"/>
<path d="M78.6027 367.084C79.6433 367.994 81.3464 367.845 82.2927 366.763C83.239 365.681 83.1582 363.973 82.1176 363.063C81.077 362.154 79.3739 362.302 78.4276 363.384C77.4813 364.466 77.5621 366.174 78.6027 367.084Z" fill="#FF6700" fill-opacity="0.5"/>
<path d="M100.009 385.798C101.049 386.708 102.753 386.56 103.699 385.477C104.645 384.395 104.564 382.687 103.524 381.778C102.483 380.868 100.78 381.016 99.8338 382.098C98.8875 383.181 98.9683 384.888 100.009 385.798Z" fill="#FF6700" fill-opacity="0.5"/>
<path d="M121.415 404.512C122.456 405.422 124.159 405.274 125.105 404.192C126.051 403.109 125.971 401.402 124.93 400.492C123.889 399.582 122.186 399.73 121.24 400.813C120.294 401.895 120.375 403.603 121.415 404.512Z" fill="#FF6700" fill-opacity="0.5"/>
<path d="M142.821 423.227C143.862 424.137 145.565 423.989 146.511 422.906C147.458 421.824 147.377 420.116 146.336 419.207C145.296 418.297 143.593 418.445 142.646 419.527C141.7 420.61 141.781 422.317 142.821 423.227Z" fill="#FF6700" fill-opacity="0.5"/>
<path d="M164.227 441.941C165.268 442.851 166.971 442.703 167.917 441.621C168.864 440.538 168.783 438.831 167.742 437.921C166.702 437.011 164.999 437.159 164.052 438.242C163.106 439.324 163.187 441.032 164.227 441.941Z" fill="#FF6700" fill-opacity="0.5"/>
<path d="M185.634 460.656C186.674 461.566 188.378 461.418 189.324 460.335C190.27 459.253 190.189 457.545 189.149 456.636C188.108 455.726 186.405 455.874 185.459 456.956C184.513 458.039 184.593 459.746 185.634 460.656Z" fill="#FF6700" fill-opacity="0.5"/>
<path d="M5.61966 342.565C6.68694 343.498 8.339 343.355 9.30963 342.244C10.2803 341.134 10.2019 339.478 9.13463 338.545C8.06735 337.612 6.41529 337.755 5.44467 338.865C4.47404 339.976 4.55239 341.632 5.61966 342.565Z" fill="#FF6700" fill-opacity="0.5"/>
<path d="M27.0255 361.28C28.0661 362.189 29.7691 362.041 30.7155 360.959C31.6618 359.876 31.581 358.169 30.5404 357.259C29.4998 356.349 27.7968 356.497 26.8504 357.58C25.9041 358.662 25.9849 360.37 27.0255 361.28Z" fill="#FF6700" fill-opacity="0.5"/>
<path d="M48.4322 379.994C49.4728 380.904 51.1759 380.756 52.1222 379.673C53.0686 378.591 52.9878 376.883 51.9472 375.973C50.9066 375.064 49.2035 375.212 48.2572 376.294C47.3108 377.377 47.3916 379.084 48.4322 379.994Z" fill="#FF6700" fill-opacity="0.5"/>
<path d="M69.838 398.709C70.8785 399.618 72.5816 399.47 73.5279 398.388C74.4743 397.305 74.3935 395.598 73.3529 394.688C72.3123 393.778 70.6093 393.926 69.6629 395.009C68.7166 396.091 68.7974 397.799 69.838 398.709Z" fill="#FF6700" fill-opacity="0.5"/>
<path d="M91.2447 417.423C92.2853 418.333 93.9884 418.185 94.9347 417.102C95.881 416.02 95.8002 414.312 94.7597 413.402C93.7191 412.493 92.016 412.641 91.0697 413.723C90.1234 414.806 90.2042 416.513 91.2447 417.423Z" fill="#FF6700" fill-opacity="0.5"/>
<path d="M112.651 436.137C113.718 437.07 115.37 436.927 116.341 435.817C117.312 434.706 117.233 433.05 116.166 432.117C115.099 431.184 113.447 431.327 112.476 432.437C111.505 433.548 111.584 435.204 112.651 436.137Z" fill="#FF6700" fill-opacity="0.5"/>
<path d="M134.057 454.852C135.098 455.761 136.801 455.613 137.747 454.531C138.694 453.448 138.613 451.741 137.572 450.831C136.532 449.921 134.829 450.069 133.882 451.152C132.936 452.234 133.017 453.942 134.057 454.852Z" fill="#FF6700" fill-opacity="0.5"/>
<path d="M155.463 473.566C156.504 474.476 158.207 474.328 159.153 473.245C160.1 472.163 160.019 470.455 158.978 469.546C157.938 468.636 156.235 468.784 155.288 469.866C154.342 470.949 154.423 472.656 155.463 473.566Z" fill="#FF6700" fill-opacity="0.5"/>
<path d="M176.869 492.281C177.91 493.19 179.613 493.042 180.56 491.96C181.506 490.877 181.425 489.17 180.384 488.26C179.344 487.35 177.641 487.498 176.694 488.581C175.748 489.663 175.829 491.371 176.869 492.281Z" fill="#FF6700" fill-opacity="0.5"/>
<path d="M-3.14492 374.19C-2.10435 375.1 -0.401286 374.952 0.545032 373.869C1.49135 372.787 1.41056 371.079 0.369981 370.169C-0.670596 369.26 -2.37363 369.408 -3.31995 370.49C-4.26627 371.573 -4.1855 373.28 -3.14492 374.19Z" fill="#FF6700" fill-opacity="0.5"/>
<path d="M18.2613 392.904C19.3019 393.814 21.005 393.666 21.9513 392.584C22.8976 391.501 22.8168 389.794 21.7763 388.884C20.7357 387.974 19.0326 388.122 18.0863 389.205C17.14 390.287 17.2208 391.995 18.2613 392.904Z" fill="#FF6700" fill-opacity="0.5"/>
<path d="M39.6681 411.619C40.7354 412.552 42.3875 412.408 43.3581 411.298C44.3287 410.188 44.2504 408.531 43.183 407.598C42.1157 406.665 40.4636 406.809 39.493 407.919C38.5224 409.029 38.6008 410.686 39.6681 411.619Z" fill="#FF6700" fill-opacity="0.5"/>
<path d="M61.0739 430.333C62.1145 431.243 63.8175 431.095 64.7638 430.012C65.7101 428.93 65.6294 427.222 64.5888 426.313C63.5482 425.403 61.8451 425.551 60.8988 426.633C59.9525 427.716 60.0333 429.423 61.0739 430.333Z" fill="#FF6700" fill-opacity="0.5"/>
<path d="M82.4801 449.047C83.5206 449.957 85.2237 449.809 86.17 448.727C87.1163 447.644 87.0356 445.937 85.995 445.027C84.9544 444.117 83.2514 444.265 82.305 445.348C81.3587 446.43 81.4395 448.138 82.4801 449.047Z" fill="#FF6700" fill-opacity="0.5"/>
<path d="M103.886 467.762C104.927 468.672 106.63 468.524 107.576 467.441C108.523 466.359 108.442 464.651 107.401 463.741C106.361 462.832 104.658 462.98 103.711 464.062C102.765 465.145 102.846 466.852 103.886 467.762Z" fill="#FF6700" fill-opacity="0.5"/>
<path d="M125.293 486.476C126.333 487.386 128.036 487.238 128.983 486.156C129.929 485.073 129.848 483.366 128.808 482.456C127.767 481.546 126.064 481.694 125.118 482.777C124.171 483.859 124.252 485.567 125.293 486.476Z" fill="#FF6700" fill-opacity="0.5"/>
<path d="M146.699 505.191C147.767 506.124 149.419 505.98 150.389 504.87C151.36 503.76 151.282 502.104 150.214 501.17C149.147 500.237 147.495 500.381 146.524 501.491C145.554 502.601 145.632 504.258 146.699 505.191Z" fill="#FF6700" fill-opacity="0.5"/>
<path d="M9.49719 424.529C10.5378 425.439 12.2408 425.291 13.1872 424.208C14.1335 423.126 14.0527 421.418 13.0121 420.509C11.9715 419.599 10.2684 419.747 9.32212 420.829C8.37579 421.912 8.4566 423.619 9.49719 424.529Z" fill="#FF6700" fill-opacity="0.5"/>
<path d="M30.9034 443.243C31.944 444.153 33.647 444.005 34.5933 442.923C35.5397 441.84 35.4589 440.133 34.4183 439.223C33.3777 438.313 31.6747 438.461 30.7284 439.544C29.782 440.626 29.8628 442.334 30.9034 443.243Z" fill="#FF6700" fill-opacity="0.5"/>
<path d="M52.3096 461.958C53.3502 462.868 55.0533 462.72 55.9996 461.637C56.9459 460.555 56.8652 458.847 55.8246 457.937C54.784 457.028 53.0809 457.176 52.1346 458.258C51.1883 459.341 51.2691 461.048 52.3096 461.958Z" fill="#FF6700" fill-opacity="0.5"/>
<path d="M73.716 480.672C74.7566 481.582 76.4596 481.434 77.4059 480.352C78.3522 479.269 78.2715 477.562 77.2309 476.652C76.1903 475.742 74.4872 475.89 73.5409 476.973C72.5945 478.055 72.6754 479.763 73.716 480.672Z" fill="#FF6700" fill-opacity="0.5"/>
<path d="M95.1223 499.387C96.1628 500.296 97.8659 500.148 98.8122 499.066C99.7585 497.984 99.6777 496.276 98.6371 495.366C97.5966 494.457 95.8935 494.605 94.9471 495.687C94.0008 496.769 94.0817 498.477 95.1223 499.387Z" fill="#FF6700" fill-opacity="0.5"/>
<path d="M116.528 518.101C117.569 519.011 119.272 518.863 120.218 517.78C121.165 516.698 121.084 514.99 120.043 514.081C119.003 513.171 117.3 513.319 116.353 514.401C115.407 515.484 115.488 517.191 116.528 518.101Z" fill="#FF6700" fill-opacity="0.5"/>
<path d="M137.935 536.815C138.975 537.725 140.678 537.577 141.625 536.495C142.571 535.412 142.49 533.705 141.45 532.795C140.409 531.885 138.706 532.033 137.76 533.116C136.813 534.198 136.894 535.906 137.935 536.815Z" fill="#FF6700" fill-opacity="0.5"/>
<path d="M0.733035 456.154C1.77364 457.063 3.47673 456.915 4.42306 455.833C5.36939 454.75 5.28858 453.043 4.24798 452.133C3.20738 451.223 1.50429 451.371 0.557957 452.454C-0.388371 453.536 -0.307566 455.244 0.733035 456.154Z" fill="#FF6700" fill-opacity="0.5"/>
<path d="M22.1397 474.868C23.1803 475.778 24.8834 475.63 25.8297 474.547C26.776 473.465 26.6953 471.757 25.6547 470.847C24.6141 469.938 22.911 470.086 21.9647 471.168C21.0184 472.251 21.0991 473.958 22.1397 474.868Z" fill="#FF6700" fill-opacity="0.5"/>
<path d="M43.5455 493.583C44.5861 494.492 46.2891 494.344 47.2354 493.262C48.1818 492.179 48.101 490.472 47.0604 489.562C46.0198 488.652 44.3168 488.8 43.3705 489.883C42.4241 490.965 42.5049 492.673 43.5455 493.583Z" fill="#FF6700" fill-opacity="0.5"/>
<path d="M64.9518 512.297C65.9924 513.207 67.6955 513.059 68.6418 511.976C69.5881 510.894 69.5073 509.186 68.4667 508.276C67.4261 507.367 65.723 507.515 64.7767 508.597C63.8304 509.68 63.9112 511.387 64.9518 512.297Z" fill="#FF6700" fill-opacity="0.5"/>
<path d="M86.3585 531.011C87.399 531.921 89.1022 531.773 90.0485 530.691C90.9948 529.608 90.914 527.9 89.8734 526.991C88.8328 526.081 87.1298 526.229 86.1834 527.312C85.2371 528.394 85.3179 530.102 86.3585 531.011Z" fill="#FF6700" fill-opacity="0.5"/>
<path d="M107.765 549.726C108.805 550.636 110.508 550.488 111.455 549.405C112.401 548.323 112.32 546.615 111.28 545.705C110.239 544.796 108.536 544.944 107.59 546.026C106.643 547.109 106.724 548.816 107.765 549.726Z" fill="#FF6700" fill-opacity="0.5"/>
<path d="M13.3751 506.493C14.4157 507.402 16.1187 507.254 17.0651 506.172C18.0114 505.09 17.9306 503.382 16.89 502.472C15.8495 501.562 14.1464 501.711 13.2 502.793C12.2537 503.875 12.3345 505.583 13.3751 506.493Z" fill="#FF6700" fill-opacity="0.5"/>
<path d="M34.7814 525.207C35.822 526.117 37.525 525.969 38.4714 524.886C39.4177 523.804 39.3369 522.096 38.2963 521.187C37.2557 520.277 35.5526 520.425 34.6063 521.507C33.66 522.59 33.7408 524.297 34.7814 525.207Z" fill="#FF6700" fill-opacity="0.5"/>
<path d="M56.1876 543.922C57.2282 544.831 58.9313 544.683 59.8777 543.601C60.824 542.519 60.7432 540.811 59.7026 539.901C58.662 538.991 56.9589 539.139 56.0126 540.222C55.0662 541.304 55.147 543.012 56.1876 543.922Z" fill="#FF6700" fill-opacity="0.5"/>
<path d="M77.5943 562.636C78.6349 563.546 80.338 563.398 81.2843 562.315C82.2306 561.233 82.1498 559.525 81.1093 558.616C80.0687 557.706 78.3656 557.854 77.4193 558.936C76.4729 560.019 76.5537 561.726 77.5943 562.636Z" fill="#FF6700" fill-opacity="0.5"/>
<path d="M99.0001 581.351C100.041 582.26 101.744 582.112 102.69 581.03C103.636 579.947 103.556 578.24 102.515 577.33C101.474 576.42 99.7714 576.568 98.825 577.651C97.8787 578.733 97.9595 580.441 99.0001 581.351Z" fill="#FF6700" fill-opacity="0.5"/>
<path d="M4.61086 538.117C5.65143 539.027 7.35448 538.879 8.30081 537.797C9.24715 536.714 9.1664 535.007 8.12583 534.097C7.08526 533.187 5.38221 533.335 4.43588 534.418C3.48954 535.5 3.57029 537.208 4.61086 538.117Z" fill="#FF6700" fill-opacity="0.5"/>
<path d="M26.0171 556.832C27.0577 557.742 28.7608 557.594 29.7071 556.511C30.6535 555.429 30.5727 553.721 29.5321 552.811C28.4915 551.902 26.7885 552.05 25.8421 553.132C24.8958 554.215 24.9766 555.922 26.0171 556.832Z" fill="#FF6700" fill-opacity="0.5"/>
<path d="M47.4234 575.546C48.464 576.456 50.1671 576.308 51.1134 575.226C52.0598 574.143 51.979 572.436 50.9384 571.526C49.8978 570.616 48.1947 570.764 47.2484 571.847C46.3021 572.929 46.3828 574.637 47.4234 575.546Z" fill="#FF6700" fill-opacity="0.5"/>
<path d="M68.8301 594.261C69.8974 595.194 71.5494 595.05 72.52 593.94C73.4907 592.83 73.4123 591.173 72.3451 590.24C71.2778 589.307 69.6257 589.451 68.6551 590.561C67.6845 591.671 67.7628 593.328 68.8301 594.261Z" fill="#FF6700" fill-opacity="0.5"/>
<path d="M-4.15318 569.742C-3.08589 570.675 -1.43386 570.532 -0.463246 569.421C0.507366 568.311 0.429015 566.655 -0.638275 565.722C-1.70556 564.789 -3.35764 564.932 -4.32825 566.042C-5.29886 567.153 -5.22047 568.809 -4.15318 569.742Z" fill="#FF6700" fill-opacity="0.5"/>
<path d="M17.2531 588.457C18.2936 589.366 19.9967 589.218 20.943 588.136C21.8893 587.053 21.8086 585.346 20.768 584.436C19.7274 583.526 18.0243 583.674 17.078 584.757C16.1317 585.839 16.2125 587.547 17.2531 588.457Z" fill="#FF6700" fill-opacity="0.5"/>
<path d="M38.6593 607.171C39.6999 608.081 41.4029 607.933 42.3493 606.85C43.2956 605.768 43.2148 604.06 42.1742 603.15C41.1336 602.241 39.4306 602.389 38.4842 603.471C37.5379 604.554 37.6187 606.261 38.6593 607.171Z" fill="#FF6700" fill-opacity="0.5"/>
</g>
</g>
<mask id="mask2" mask-type="alpha" maskUnits="userSpaceOnUse" x="1752" y="14" width="631" height="635">
<ellipse cx="2067.26" cy="331.642" rx="314.881" ry="317.356" fill="#C4C4C4"/>
</mask>
<g mask="url(#mask2)">
<g clip-path="url(#clip1)">
<path d="M1998.17 32.802C1999.38 33.8587 2001.25 33.6961 2002.35 32.4388C2003.45 31.1816 2003.36 29.3058 2002.15 28.2492C2000.94 27.1925 1999.07 27.3551 1997.97 28.6124C1996.87 29.8696 1996.96 31.7454 1998.17 32.802Z" fill="#FF6700" fill-opacity="0.13"/>
<path d="M1939.76 26.2294C1940.94 27.2596 1942.87 27.0919 1943.94 25.8661C1945.01 24.6403 1944.92 22.7066 1943.74 21.6764C1942.56 20.6462 1940.64 20.8139 1939.56 22.0397C1938.49 23.2654 1938.58 25.1992 1939.76 26.2294Z" fill="#FF6700" fill-opacity="0.13"/>
<path d="M1964 47.422C1965.18 48.4522 1967.11 48.2845 1968.18 47.0587C1969.25 45.8329 1969.16 43.8992 1967.98 42.869C1966.8 41.8388 1964.88 42.0065 1963.8 43.2323C1962.73 44.4581 1962.82 46.3918 1964 47.422Z" fill="#FF6700" fill-opacity="0.13"/>
<path d="M1988.24 68.6146C1989.42 69.6448 1991.35 69.4772 1992.42 68.2514C1993.49 67.0256 1993.4 65.0919 1992.22 64.0617C1991.05 63.0315 1989.12 63.1991 1988.05 64.4249C1986.97 65.6507 1987.07 67.5844 1988.24 68.6146Z" fill="#FF6700" fill-opacity="0.13"/>
<path d="M1881.35 19.6566C1882.53 20.6868 1884.46 20.5192 1885.53 19.2934C1886.61 18.0676 1886.51 16.1339 1885.34 15.1037C1884.16 14.0735 1882.23 14.2411 1881.16 15.4669C1880.08 16.6927 1880.18 18.6264 1881.35 19.6566Z" fill="#FF6700" fill-opacity="0.13"/>
<path d="M1905.6 40.8493C1906.77 41.8795 1908.7 41.7118 1909.77 40.486C1910.85 39.2602 1910.75 37.3265 1909.58 36.2963C1908.4 35.2661 1906.47 35.4337 1905.4 36.6595C1904.33 37.8853 1904.42 39.8191 1905.6 40.8493Z" fill="#FF6700" fill-opacity="0.13"/>
<path d="M1929.84 62.0419C1931.02 63.0721 1932.94 62.9044 1934.02 61.6786C1935.09 60.4528 1935 58.5191 1933.82 57.4889C1932.64 56.4587 1930.71 56.6264 1929.64 57.8522C1928.57 59.078 1928.66 61.0117 1929.84 62.0419Z" fill="#FF6700" fill-opacity="0.13"/>
<path d="M1954.08 83.2345C1955.26 84.2647 1957.18 84.097 1958.26 82.8712C1959.33 81.6454 1959.24 79.7117 1958.06 78.6815C1956.88 77.6513 1954.95 77.819 1953.88 79.0448C1952.81 80.2706 1952.9 82.2043 1954.08 83.2345Z" fill="#FF6700" fill-opacity="0.13"/>
<path d="M1978.32 104.427C1979.5 105.458 1981.43 105.29 1982.5 104.064C1983.57 102.838 1983.48 100.905 1982.3 99.8744C1981.12 98.8442 1979.19 99.0119 1978.12 100.238C1977.05 101.463 1977.14 103.397 1978.32 104.427Z" fill="#FF6700" fill-opacity="0.13"/>
<path d="M1847.19 34.2764C1848.37 35.3066 1850.3 35.139 1851.37 33.9132C1852.44 32.6874 1852.35 30.7537 1851.17 29.7235C1849.99 28.6933 1848.06 28.861 1846.99 30.0867C1845.92 31.3125 1846.01 33.2462 1847.19 34.2764Z" fill="#FF6700" fill-opacity="0.13"/>
<path d="M1871.43 55.4691C1872.61 56.4993 1874.54 56.3316 1875.61 55.1058C1876.68 53.88 1876.59 51.9464 1875.41 50.9162C1874.23 49.886 1872.3 50.0536 1871.23 51.2794C1870.16 52.5052 1870.25 54.4389 1871.43 55.4691Z" fill="#FF6700" fill-opacity="0.13"/>
<path d="M1895.67 76.662C1896.85 77.6922 1898.78 77.5245 1899.85 76.2987C1900.92 75.0729 1900.83 73.1392 1899.65 72.109C1898.47 71.0788 1896.54 71.2465 1895.47 72.4723C1894.4 73.698 1894.49 75.6318 1895.67 76.662Z" fill="#FF6700" fill-opacity="0.13"/>
<path d="M1919.91 97.8543C1921.09 98.8845 1923.02 98.7168 1924.09 97.4911C1925.16 96.2653 1925.07 94.3316 1923.89 93.3014C1922.71 92.2712 1920.79 92.4388 1919.71 93.6646C1918.64 94.8904 1918.73 96.8241 1919.91 97.8543Z" fill="#FF6700" fill-opacity="0.13"/>
<path d="M1944.15 119.047C1945.33 120.077 1947.26 119.91 1948.33 118.684C1949.4 117.458 1949.31 115.524 1948.13 114.494C1946.96 113.464 1945.03 113.631 1943.95 114.857C1942.88 116.083 1942.97 118.017 1944.15 119.047Z" fill="#FF6700" fill-opacity="0.13"/>
<path d="M1968.39 140.24C1969.57 141.27 1971.5 141.102 1972.57 139.877C1973.64 138.651 1973.55 136.717 1972.37 135.687C1971.2 134.657 1969.27 134.824 1968.2 136.05C1967.12 137.276 1967.22 139.21 1968.39 140.24Z" fill="#FF6700" fill-opacity="0.13"/>
<path d="M1992.64 161.432C1993.81 162.463 1995.74 162.295 1996.81 161.069C1997.89 159.843 1997.79 157.91 1996.62 156.88C1995.44 155.849 1993.51 156.017 1992.44 157.243C1991.37 158.469 1991.46 160.402 1992.64 161.432Z" fill="#FF6700" fill-opacity="0.13"/>
<path d="M1837.26 70.0889C1838.44 71.1191 1840.37 70.9515 1841.44 69.7257C1842.51 68.4999 1842.42 66.5662 1841.24 65.536C1840.07 64.5058 1838.14 64.6735 1837.07 65.8992C1835.99 67.125 1836.09 69.0587 1837.26 70.0889Z" fill="#FF6700" fill-opacity="0.13"/>
<path d="M1861.51 91.2816C1862.68 92.3118 1864.61 92.1442 1865.68 90.9184C1866.76 89.6926 1866.66 87.7589 1865.49 86.7287C1864.31 85.6985 1862.38 85.8661 1861.31 87.0919C1860.24 88.3177 1860.33 90.2514 1861.51 91.2816Z" fill="#FF6700" fill-opacity="0.13"/>
<path d="M1885.75 112.475C1886.92 113.505 1888.85 113.337 1889.92 112.111C1891 110.885 1890.9 108.952 1889.73 107.922C1888.55 106.891 1886.62 107.059 1885.55 108.285C1884.48 109.511 1884.57 111.444 1885.75 112.475Z" fill="#FF6700" fill-opacity="0.13"/>
<path d="M1909.99 133.667C1911.2 134.724 1913.07 134.561 1914.17 133.304C1915.27 132.047 1915.18 130.171 1913.97 129.114C1912.76 128.058 1910.89 128.22 1909.79 129.477C1908.69 130.735 1908.78 132.61 1909.99 133.667Z" fill="#FF6700" fill-opacity="0.13"/>
<path d="M1934.23 154.86C1935.41 155.89 1937.34 155.722 1938.41 154.497C1939.48 153.271 1939.39 151.337 1938.21 150.307C1937.03 149.277 1935.1 149.444 1934.03 150.67C1932.96 151.896 1933.05 153.83 1934.23 154.86Z" fill="#FF6700" fill-opacity="0.13"/>
<path d="M1958.47 176.052C1959.65 177.083 1961.58 176.915 1962.65 175.689C1963.72 174.463 1963.63 172.53 1962.45 171.499C1961.27 170.469 1959.34 170.637 1958.27 171.863C1957.2 173.088 1957.29 175.022 1958.47 176.052Z" fill="#FF6700" fill-opacity="0.13"/>
<path d="M1982.71 197.245C1983.89 198.275 1985.82 198.108 1986.89 196.882C1987.96 195.656 1987.87 193.722 1986.69 192.692C1985.51 191.662 1983.58 191.829 1982.51 193.055C1981.44 194.281 1981.53 196.215 1982.71 197.245Z" fill="#FF6700" fill-opacity="0.13"/>
<path d="M1803.1 84.7088C1804.28 85.739 1806.21 85.5714 1807.28 84.3456C1808.35 83.1198 1808.26 81.1861 1807.08 80.1559C1805.9 79.1257 1803.97 79.2934 1802.9 80.5191C1801.83 81.7449 1801.92 83.6786 1803.1 84.7088Z" fill="#FF6700" fill-opacity="0.13"/>
<path d="M1827.34 105.902C1828.55 106.958 1830.42 106.796 1831.52 105.538C1832.62 104.281 1832.53 102.405 1831.32 101.349C1830.11 100.292 1828.24 100.455 1827.14 101.712C1826.04 102.969 1826.13 104.845 1827.34 105.902Z" fill="#FF6700" fill-opacity="0.13"/>
<path d="M1851.58 127.094C1852.76 128.125 1854.69 127.957 1855.76 126.731C1856.83 125.505 1856.74 123.572 1855.56 122.541C1854.38 121.511 1852.45 121.679 1851.38 122.905C1850.31 124.13 1850.4 126.064 1851.58 127.094Z" fill="#FF6700" fill-opacity="0.13"/>
<path d="M1875.82 148.287C1877 149.317 1878.93 149.149 1880 147.924C1881.07 146.698 1880.98 144.764 1879.8 143.734C1878.62 142.704 1876.69 142.871 1875.62 144.097C1874.55 145.323 1874.64 147.257 1875.82 148.287Z" fill="#FF6700" fill-opacity="0.13"/>
<path d="M1900.06 169.48C1901.24 170.51 1903.17 170.342 1904.24 169.116C1905.31 167.891 1905.22 165.957 1904.04 164.927C1902.86 163.896 1900.94 164.064 1899.86 165.29C1898.79 166.516 1898.88 168.449 1900.06 169.48Z" fill="#FF6700" fill-opacity="0.13"/>
<path d="M1924.3 190.672C1925.48 191.702 1927.41 191.535 1928.48 190.309C1929.55 189.083 1929.46 187.15 1928.28 186.119C1927.11 185.089 1925.18 185.257 1924.11 186.483C1923.03 187.708 1923.13 189.642 1924.3 190.672Z" fill="#FF6700" fill-opacity="0.13"/>
<path d="M1948.54 211.865C1949.75 212.922 1951.62 212.759 1952.72 211.502C1953.82 210.245 1953.73 208.369 1952.52 207.312C1951.32 206.256 1949.45 206.418 1948.35 207.675C1947.25 208.933 1947.34 210.808 1948.54 211.865Z" fill="#FF6700" fill-opacity="0.13"/>
<path d="M1972.79 233.058C1973.96 234.088 1975.89 233.92 1976.96 232.694C1978.04 231.469 1977.94 229.535 1976.77 228.505C1975.59 227.475 1973.66 227.642 1972.59 228.868C1971.52 230.094 1971.61 232.027 1972.79 233.058Z" fill="#FF6700" fill-opacity="0.13"/>
<path d="M1997.03 254.25C1998.2 255.281 2000.13 255.113 2001.2 253.887C2002.28 252.661 2002.19 250.728 2001.01 249.697C1999.83 248.667 1997.9 248.835 1996.83 250.061C1995.76 251.286 1995.85 253.22 1997.03 254.25Z" fill="#FF6700" fill-opacity="0.13"/>
<path d="M1793.17 120.522C1794.35 121.552 1796.28 121.384 1797.35 120.158C1798.42 118.933 1798.33 116.999 1797.15 115.969C1795.98 114.938 1794.05 115.106 1792.98 116.332C1791.9 117.558 1792 119.491 1793.17 120.522Z" fill="#FF6700" fill-opacity="0.13"/>
<path d="M1817.41 141.714C1818.59 142.744 1820.52 142.577 1821.59 141.351C1822.66 140.125 1822.57 138.191 1821.39 137.161C1820.22 136.131 1818.29 136.299 1817.22 137.525C1816.14 138.75 1816.24 140.684 1817.41 141.714Z" fill="#FF6700" fill-opacity="0.13"/>
<path d="M1841.66 162.907C1842.83 163.937 1844.76 163.769 1845.83 162.544C1846.91 161.318 1846.81 159.384 1845.64 158.354C1844.46 157.324 1842.53 157.491 1841.46 158.717C1840.39 159.943 1840.48 161.877 1841.66 162.907Z" fill="#FF6700" fill-opacity="0.13"/>
<path d="M1865.9 184.099C1867.08 185.13 1869 184.962 1870.08 183.736C1871.15 182.51 1871.06 180.577 1869.88 179.547C1868.7 178.516 1866.77 178.684 1865.7 179.91C1864.63 181.136 1864.72 183.069 1865.9 184.099Z" fill="#FF6700" fill-opacity="0.13"/>
<path d="M1890.14 205.292C1891.32 206.323 1893.24 206.155 1894.32 204.929C1895.39 203.703 1895.3 201.77 1894.12 200.739C1892.94 199.709 1891.01 199.877 1889.94 201.103C1888.87 202.328 1888.96 204.262 1890.14 205.292Z" fill="#FF6700" fill-opacity="0.13"/>
<path d="M1914.38 226.485C1915.56 227.515 1917.49 227.348 1918.56 226.122C1919.63 224.896 1919.54 222.962 1918.36 221.932C1917.18 220.902 1915.25 221.069 1914.18 222.295C1913.11 223.521 1913.2 225.455 1914.38 226.485Z" fill="#FF6700" fill-opacity="0.13"/>
<path d="M1938.62 247.678C1939.8 248.708 1941.73 248.54 1942.8 247.314C1943.87 246.089 1943.78 244.155 1942.6 243.125C1941.42 242.094 1939.49 242.262 1938.42 243.488C1937.35 244.714 1937.44 246.647 1938.62 247.678Z" fill="#FF6700" fill-opacity="0.13"/>
<path d="M1962.86 268.87C1964.04 269.9 1965.97 269.733 1967.04 268.507C1968.11 267.281 1968.02 265.347 1966.84 264.317C1965.66 263.287 1963.73 263.455 1962.66 264.681C1961.59 265.906 1961.68 267.84 1962.86 268.87Z" fill="#FF6700" fill-opacity="0.13"/>
<path d="M1987.1 290.063C1988.28 291.093 1990.21 290.925 1991.28 289.7C1992.35 288.474 1992.26 286.54 1991.08 285.51C1989.9 284.48 1987.97 284.647 1986.9 285.873C1985.83 287.099 1985.92 289.033 1987.1 290.063Z" fill="#FF6700" fill-opacity="0.13"/>
<path d="M1759.01 135.141C1760.19 136.172 1762.12 136.004 1763.19 134.778C1764.26 133.552 1764.17 131.619 1762.99 130.589C1761.81 129.558 1759.88 129.726 1758.81 130.952C1757.74 132.178 1757.83 134.111 1759.01 135.141Z" fill="#FF6700" fill-opacity="0.13"/>
<path d="M1783.25 156.334C1784.43 157.364 1786.36 157.197 1787.43 155.971C1788.5 154.745 1788.41 152.811 1787.23 151.781C1786.05 150.751 1784.12 150.919 1783.05 152.144C1781.98 153.37 1782.07 155.304 1783.25 156.334Z" fill="#FF6700" fill-opacity="0.13"/>
<path d="M1807.49 177.527C1808.67 178.557 1810.6 178.389 1811.67 177.163C1812.74 175.938 1812.65 174.004 1811.47 172.974C1810.29 171.944 1808.36 172.111 1807.29 173.337C1806.22 174.563 1806.31 176.497 1807.49 177.527Z" fill="#FF6700" fill-opacity="0.13"/>
<path d="M1831.73 198.719C1832.91 199.75 1834.84 199.582 1835.91 198.356C1836.98 197.13 1836.89 195.197 1835.71 194.166C1834.53 193.136 1832.6 193.304 1831.53 194.53C1830.46 195.755 1830.55 197.689 1831.73 198.719Z" fill="#FF6700" fill-opacity="0.13"/>
<path d="M1855.97 219.912C1857.15 220.942 1859.08 220.775 1860.15 219.549C1861.22 218.323 1861.13 216.389 1859.95 215.359C1858.77 214.329 1856.85 214.496 1855.77 215.722C1854.7 216.948 1854.79 218.882 1855.97 219.912Z" fill="#FF6700" fill-opacity="0.13"/>
<path d="M1880.21 241.105C1881.39 242.135 1883.32 241.967 1884.39 240.742C1885.46 239.516 1885.37 237.582 1884.19 236.552C1883.01 235.522 1881.09 235.689 1880.01 236.915C1878.94 238.141 1879.03 240.075 1880.21 241.105Z" fill="#FF6700" fill-opacity="0.13"/>
<path d="M1904.45 262.297C1905.63 263.328 1907.56 263.16 1908.63 261.934C1909.7 260.708 1909.61 258.775 1908.43 257.745C1907.26 256.714 1905.33 256.882 1904.26 258.108C1903.18 259.334 1903.28 261.267 1904.45 262.297Z" fill="#FF6700" fill-opacity="0.13"/>
<path d="M1928.69 283.49C1929.87 284.52 1931.8 284.353 1932.87 283.127C1933.95 281.901 1933.85 279.967 1932.68 278.937C1931.5 277.907 1929.57 278.075 1928.5 279.3C1927.42 280.526 1927.52 282.46 1928.69 283.49Z" fill="#FF6700" fill-opacity="0.13"/>
<path d="M1952.94 304.683C1954.11 305.713 1956.04 305.545 1957.11 304.319C1958.19 303.094 1958.09 301.16 1956.92 300.13C1955.74 299.1 1953.81 299.267 1952.74 300.493C1951.67 301.719 1951.76 303.653 1952.94 304.683Z" fill="#FF6700" fill-opacity="0.13"/>
<path d="M1977.18 325.875C1978.36 326.906 1980.28 326.738 1981.36 325.512C1982.43 324.286 1982.34 322.353 1981.16 321.322C1979.98 320.292 1978.05 320.46 1976.98 321.686C1975.91 322.911 1976 324.845 1977.18 325.875Z" fill="#FF6700" fill-opacity="0.13"/>
<path d="M2001.42 347.068C2002.6 348.098 2004.52 347.931 2005.6 346.705C2006.67 345.479 2006.58 343.545 2005.4 342.515C2004.22 341.485 2002.29 341.652 2001.22 342.878C2000.15 344.104 2000.24 346.038 2001.42 347.068Z" fill="#FF6700" fill-opacity="0.13"/>
<path d="M1749.08 170.954C1750.26 171.984 1752.19 171.817 1753.26 170.591C1754.33 169.365 1754.24 167.431 1753.06 166.401C1751.89 165.371 1749.96 165.538 1748.89 166.764C1747.81 167.99 1747.9 169.924 1749.08 170.954Z" fill="#FF6700" fill-opacity="0.13"/>
<path d="M1773.32 192.147C1774.5 193.177 1776.43 193.009 1777.5 191.783C1778.57 190.558 1778.48 188.624 1777.3 187.594C1776.13 186.563 1774.2 186.731 1773.13 187.957C1772.05 189.183 1772.15 191.116 1773.32 192.147Z" fill="#FF6700" fill-opacity="0.13"/>
<path d="M1797.57 213.339C1798.74 214.37 1800.67 214.202 1801.74 212.976C1802.82 211.75 1802.72 209.817 1801.55 208.787C1800.37 207.756 1798.44 207.924 1797.37 209.15C1796.3 210.376 1796.39 212.309 1797.57 213.339Z" fill="#FF6700" fill-opacity="0.13"/>
<path d="M1821.81 234.532C1822.98 235.562 1824.91 235.394 1825.98 234.169C1827.06 232.943 1826.96 231.009 1825.79 229.979C1824.61 228.949 1822.68 229.116 1821.61 230.342C1820.54 231.568 1820.63 233.502 1821.81 234.532Z" fill="#FF6700" fill-opacity="0.13"/>
<path d="M1846.05 255.725C1847.23 256.755 1849.15 256.587 1850.23 255.361C1851.3 254.136 1851.21 252.202 1850.03 251.172C1848.85 250.142 1846.92 250.309 1845.85 251.535C1844.78 252.761 1844.87 254.695 1846.05 255.725Z" fill="#FF6700" fill-opacity="0.13"/>
<path d="M1870.29 276.917C1871.47 277.947 1873.4 277.78 1874.47 276.554C1875.54 275.328 1875.45 273.394 1874.27 272.364C1873.09 271.334 1871.16 271.502 1870.09 272.727C1869.02 273.953 1869.11 275.887 1870.29 276.917Z" fill="#FF6700" fill-opacity="0.13"/>
<path d="M1894.53 298.11C1895.71 299.14 1897.64 298.973 1898.71 297.747C1899.78 296.521 1899.69 294.587 1898.51 293.557C1897.33 292.527 1895.4 292.694 1894.33 293.92C1893.26 295.146 1893.35 297.08 1894.53 298.11Z" fill="#FF6700" fill-opacity="0.13"/>
<path d="M1918.77 319.303C1919.95 320.333 1921.88 320.165 1922.95 318.939C1924.02 317.714 1923.93 315.78 1922.75 314.75C1921.57 313.719 1919.64 313.887 1918.57 315.113C1917.5 316.339 1917.59 318.272 1918.77 319.303Z" fill="#FF6700" fill-opacity="0.13"/>
<path d="M1943.01 340.495C1944.19 341.525 1946.12 341.358 1947.19 340.132C1948.26 338.906 1948.17 336.972 1946.99 335.942C1945.81 334.912 1943.88 335.08 1942.81 336.306C1941.74 337.531 1941.83 339.465 1943.01 340.495Z" fill="#FF6700" fill-opacity="0.13"/>
<path d="M1967.25 361.688C1968.43 362.718 1970.36 362.551 1971.43 361.325C1972.5 360.099 1972.41 358.165 1971.23 357.135C1970.05 356.105 1968.13 356.273 1967.05 357.498C1965.98 358.724 1966.07 360.658 1967.25 361.688Z" fill="#FF6700" fill-opacity="0.13"/>
<path d="M1991.49 382.88C1992.67 383.911 1994.6 383.743 1995.67 382.517C1996.74 381.291 1996.65 379.358 1995.47 378.328C1994.29 377.297 1992.37 377.465 1991.29 378.691C1990.22 379.917 1990.31 381.85 1991.49 382.88Z" fill="#FF6700" fill-opacity="0.13"/>
<path d="M1763.4 227.959C1764.58 228.99 1766.51 228.822 1767.58 227.596C1768.65 226.37 1768.56 224.437 1767.38 223.406C1766.2 222.376 1764.27 222.544 1763.2 223.77C1762.13 224.995 1762.22 226.929 1763.4 227.959Z" fill="#FF6700" fill-opacity="0.13"/>
<path d="M1787.64 249.152C1788.82 250.182 1790.75 250.015 1791.82 248.789C1792.89 247.563 1792.8 245.629 1791.62 244.599C1790.44 243.569 1788.51 243.736 1787.44 244.962C1786.37 246.188 1786.46 248.122 1787.64 249.152Z" fill="#FF6700" fill-opacity="0.13"/>
<path d="M1811.88 270.345C1813.06 271.375 1814.99 271.207 1816.06 269.981C1817.13 268.756 1817.04 266.822 1815.86 265.792C1814.68 264.761 1812.75 264.929 1811.68 266.155C1810.61 267.381 1810.7 269.314 1811.88 270.345Z" fill="#FF6700" fill-opacity="0.13"/>
<path d="M1836.12 291.537C1837.3 292.567 1839.23 292.4 1840.3 291.174C1841.37 289.948 1841.28 288.014 1840.1 286.984C1838.92 285.954 1837 286.122 1835.92 287.348C1834.85 288.573 1834.94 290.507 1836.12 291.537Z" fill="#FF6700" fill-opacity="0.13"/>
<path d="M1860.36 312.73C1861.57 313.786 1863.44 313.624 1864.54 312.367C1865.64 311.109 1865.55 309.234 1864.34 308.177C1863.14 307.12 1861.26 307.283 1860.17 308.54C1859.07 309.797 1859.15 311.673 1860.36 312.73Z" fill="#FF6700" fill-opacity="0.13"/>
<path d="M1884.6 333.923C1885.78 334.953 1887.71 334.785 1888.78 333.56C1889.85 332.334 1889.76 330.4 1888.58 329.37C1887.41 328.34 1885.48 328.507 1884.41 329.733C1883.33 330.959 1883.43 332.893 1884.6 333.923Z" fill="#FF6700" fill-opacity="0.13"/>
<path d="M1908.85 355.115C1910.02 356.146 1911.95 355.978 1913.02 354.752C1914.1 353.526 1914 351.593 1912.83 350.562C1911.65 349.532 1909.72 349.7 1908.65 350.926C1907.58 352.152 1907.67 354.085 1908.85 355.115Z" fill="#FF6700" fill-opacity="0.13"/>
<path d="M1933.09 376.308C1934.26 377.338 1936.19 377.17 1937.26 375.945C1938.34 374.719 1938.24 372.785 1937.07 371.755C1935.89 370.725 1933.96 370.892 1932.89 372.118C1931.82 373.344 1931.91 375.278 1933.09 376.308Z" fill="#FF6700" fill-opacity="0.13"/>
<path d="M1957.33 397.501C1958.51 398.531 1960.43 398.363 1961.51 397.137C1962.58 395.912 1962.49 393.978 1961.31 392.948C1960.13 391.917 1958.2 392.085 1957.13 393.311C1956.06 394.537 1956.15 396.47 1957.33 397.501Z" fill="#FF6700" fill-opacity="0.13"/>
<path d="M1981.57 418.693C1982.78 419.75 1984.65 419.587 1985.75 418.33C1986.85 417.073 1986.76 415.197 1985.55 414.14C1984.34 413.084 1982.47 413.246 1981.37 414.504C1980.27 415.761 1980.36 417.637 1981.57 418.693Z" fill="#FF6700" fill-opacity="0.13"/>
<path d="M1753.47 263.772C1754.65 264.802 1756.58 264.634 1757.65 263.409C1758.72 262.183 1758.63 260.249 1757.46 259.219C1756.28 258.189 1754.35 258.356 1753.28 259.582C1752.2 260.808 1752.3 262.742 1753.47 263.772Z" fill="#FF6700" fill-opacity="0.13"/>
<path d="M1777.72 284.964C1778.92 286.021 1780.79 285.858 1781.89 284.601C1782.99 283.344 1782.9 281.468 1781.7 280.412C1780.49 279.355 1778.62 279.517 1777.52 280.775C1776.42 282.032 1776.51 283.908 1777.72 284.964Z" fill="#FF6700" fill-opacity="0.13"/>
<path d="M1801.96 306.157C1803.13 307.188 1805.06 307.02 1806.14 305.794C1807.21 304.568 1807.12 302.635 1805.94 301.604C1804.76 300.574 1802.83 300.742 1801.76 301.968C1800.69 303.193 1800.78 305.127 1801.96 306.157Z" fill="#FF6700" fill-opacity="0.13"/>
<path d="M1826.2 327.35C1827.38 328.38 1829.3 328.212 1830.38 326.987C1831.45 325.761 1831.36 323.827 1830.18 322.797C1829 321.767 1827.07 321.934 1826 323.16C1824.93 324.386 1825.02 326.32 1826.2 327.35Z" fill="#FF6700" fill-opacity="0.13"/>
<path d="M1850.44 348.543C1851.62 349.573 1853.55 349.405 1854.62 348.179C1855.69 346.954 1855.6 345.02 1854.42 343.99C1853.24 342.959 1851.31 343.127 1850.24 344.353C1849.17 345.579 1849.26 347.512 1850.44 348.543Z" fill="#FF6700" fill-opacity="0.13"/>
<path d="M1874.68 369.735C1875.86 370.765 1877.79 370.598 1878.86 369.372C1879.93 368.146 1879.84 366.212 1878.66 365.182C1877.48 364.152 1875.55 364.32 1874.48 365.546C1873.41 366.771 1873.5 368.705 1874.68 369.735Z" fill="#FF6700" fill-opacity="0.13"/>
<path d="M1898.92 390.928C1900.13 391.984 1902 391.822 1903.1 390.565C1904.2 389.307 1904.11 387.432 1902.9 386.375C1901.69 385.318 1899.82 385.481 1898.72 386.738C1897.62 387.995 1897.71 389.871 1898.92 390.928Z" fill="#FF6700" fill-opacity="0.13"/>
<path d="M1923.16 412.121C1924.34 413.151 1926.27 412.983 1927.34 411.757C1928.41 410.532 1928.32 408.598 1927.14 407.568C1925.96 406.538 1924.03 406.705 1922.96 407.931C1921.89 409.157 1921.98 411.09 1923.16 412.121Z" fill="#FF6700" fill-opacity="0.13"/>
<path d="M1947.4 433.313C1948.58 434.343 1950.51 434.176 1951.58 432.95C1952.65 431.724 1952.56 429.79 1951.38 428.76C1950.2 427.73 1948.28 427.898 1947.2 429.123C1946.13 430.349 1946.22 432.283 1947.4 433.313Z" fill="#FF6700" fill-opacity="0.13"/>
<path d="M1971.64 454.506C1972.82 455.536 1974.75 455.368 1975.82 454.142C1976.89 452.917 1976.8 450.983 1975.62 449.953C1974.45 448.923 1972.52 449.09 1971.45 450.316C1970.37 451.542 1970.46 453.476 1971.64 454.506Z" fill="#FF6700" fill-opacity="0.13"/>
<path d="M1995.88 475.699C1997.06 476.729 1998.99 476.561 2000.06 475.335C2001.13 474.11 2001.04 472.176 1999.86 471.146C1998.69 470.115 1996.76 470.283 1995.69 471.509C1994.61 472.735 1994.71 474.668 1995.88 475.699Z" fill="#FF6700" fill-opacity="0.13"/>
<path d="M1767.79 320.777C1768.97 321.807 1770.9 321.639 1771.97 320.414C1773.04 319.188 1772.95 317.254 1771.77 316.224C1770.59 315.194 1768.66 315.361 1767.59 316.587C1766.52 317.813 1766.61 319.747 1767.79 320.777Z" fill="#FF6700" fill-opacity="0.13"/>
<path d="M1792.03 341.97C1793.21 343 1795.14 342.832 1796.21 341.607C1797.28 340.381 1797.19 338.447 1796.01 337.417C1794.83 336.387 1792.91 336.554 1791.83 337.78C1790.76 339.006 1790.85 340.94 1792.03 341.97Z" fill="#FF6700" fill-opacity="0.13"/>
<path d="M1816.27 363.162C1817.45 364.193 1819.38 364.025 1820.45 362.799C1821.52 361.573 1821.43 359.64 1820.25 358.61C1819.07 357.579 1817.15 357.747 1816.07 358.973C1815 360.199 1815.09 362.132 1816.27 363.162Z" fill="#FF6700" fill-opacity="0.13"/>
<path d="M1840.51 384.355C1841.69 385.385 1843.62 385.218 1844.69 383.992C1845.76 382.766 1845.67 380.833 1844.49 379.802C1843.32 378.772 1841.39 378.94 1840.32 380.166C1839.24 381.391 1839.34 383.325 1840.51 384.355Z" fill="#FF6700" fill-opacity="0.13"/>
<path d="M1864.75 405.548C1865.93 406.578 1867.86 406.41 1868.93 405.184C1870 403.959 1869.91 402.025 1868.73 400.995C1867.56 399.965 1865.63 400.132 1864.56 401.358C1863.48 402.584 1863.58 404.517 1864.75 405.548Z" fill="#FF6700" fill-opacity="0.13"/>
<path d="M1889 426.74C1890.17 427.77 1892.1 427.603 1893.17 426.377C1894.25 425.151 1894.15 423.218 1892.98 422.187C1891.8 421.157 1889.87 421.325 1888.8 422.551C1887.73 423.776 1887.82 425.71 1889 426.74Z" fill="#FF6700" fill-opacity="0.13"/>
<path d="M1913.24 447.933C1914.42 448.963 1916.34 448.796 1917.42 447.57C1918.49 446.344 1918.4 444.41 1917.22 443.38C1916.04 442.35 1914.11 442.518 1913.04 443.743C1911.97 444.969 1912.06 446.903 1913.24 447.933Z" fill="#FF6700" fill-opacity="0.13"/>
<path d="M1937.48 469.126C1938.66 470.156 1940.58 469.988 1941.66 468.763C1942.73 467.537 1942.64 465.603 1941.46 464.573C1940.28 463.543 1938.35 463.71 1937.28 464.936C1936.21 466.162 1936.3 468.096 1937.48 469.126Z" fill="#FF6700" fill-opacity="0.13"/>
<path d="M1961.72 490.318C1962.9 491.349 1964.83 491.181 1965.9 489.955C1966.97 488.729 1966.88 486.796 1965.7 485.766C1964.52 484.735 1962.59 484.903 1961.52 486.129C1960.45 487.354 1960.54 489.288 1961.72 490.318Z" fill="#FF6700" fill-opacity="0.13"/>
<path d="M1985.96 511.511C1987.14 512.541 1989.07 512.374 1990.14 511.148C1991.21 509.922 1991.12 507.988 1989.94 506.958C1988.76 505.928 1986.83 506.096 1985.76 507.321C1984.69 508.547 1984.78 510.481 1985.96 511.511Z" fill="#FF6700" fill-opacity="0.13"/>
<path d="M1757.87 356.59C1759.04 357.62 1760.97 357.452 1762.04 356.226C1763.12 355.001 1763.02 353.067 1761.85 352.037C1760.67 351.007 1758.74 351.174 1757.67 352.4C1756.6 353.626 1756.69 355.559 1757.87 356.59Z" fill="#FF6700" fill-opacity="0.13"/>
<path d="M1782.11 377.782C1783.29 378.812 1785.21 378.645 1786.29 377.419C1787.36 376.193 1787.27 374.26 1786.09 373.229C1784.91 372.199 1782.98 372.367 1781.91 373.593C1780.84 374.818 1780.93 376.752 1782.11 377.782Z" fill="#FF6700" fill-opacity="0.13"/>
<path d="M1806.35 398.975C1807.53 400.005 1809.45 399.837 1810.53 398.612C1811.6 397.386 1811.51 395.452 1810.33 394.422C1809.15 393.392 1807.22 393.559 1806.15 394.785C1805.08 396.011 1805.17 397.945 1806.35 398.975Z" fill="#FF6700" fill-opacity="0.13"/>
<path d="M1830.59 420.168C1831.77 421.198 1833.7 421.03 1834.77 419.804C1835.84 418.579 1835.75 416.645 1834.57 415.615C1833.39 414.584 1831.46 414.752 1830.39 415.978C1829.32 417.204 1829.41 419.137 1830.59 420.168Z" fill="#FF6700" fill-opacity="0.13"/>
<path d="M1854.83 441.36C1856.01 442.39 1857.94 442.223 1859.01 440.997C1860.08 439.771 1859.99 437.837 1858.81 436.807C1857.63 435.777 1855.7 435.945 1854.63 437.17C1853.56 438.396 1853.65 440.33 1854.83 441.36Z" fill="#FF6700" fill-opacity="0.13"/>
<path d="M1879.07 462.553C1880.25 463.583 1882.18 463.415 1883.25 462.19C1884.32 460.964 1884.23 459.03 1883.05 458C1881.87 456.97 1879.94 457.137 1878.87 458.363C1877.8 459.589 1877.89 461.523 1879.07 462.553Z" fill="#FF6700" fill-opacity="0.13"/>
<path d="M1903.31 483.745C1904.49 484.776 1906.42 484.608 1907.49 483.382C1908.56 482.156 1908.47 480.223 1907.29 479.193C1906.11 478.162 1904.19 478.33 1903.11 479.556C1902.04 480.781 1902.13 482.715 1903.31 483.745Z" fill="#FF6700" fill-opacity="0.13"/>
<path d="M1927.55 504.938C1928.73 505.968 1930.66 505.801 1931.73 504.575C1932.8 503.349 1932.71 501.416 1931.53 500.385C1930.35 499.355 1928.43 499.523 1927.35 500.749C1926.28 501.974 1926.37 503.908 1927.55 504.938Z" fill="#FF6700" fill-opacity="0.13"/>
<path d="M1951.79 526.131C1952.97 527.161 1954.9 526.993 1955.97 525.768C1957.04 524.542 1956.95 522.608 1955.77 521.578C1954.6 520.548 1952.67 520.715 1951.6 521.941C1950.52 523.167 1950.62 525.101 1951.79 526.131Z" fill="#FF6700" fill-opacity="0.13"/>
<path d="M1976.03 547.324C1977.21 548.354 1979.14 548.186 1980.21 546.961C1981.29 545.735 1981.19 543.801 1980.02 542.771C1978.84 541.741 1976.91 541.908 1975.84 543.134C1974.76 544.36 1974.86 546.294 1976.03 547.324Z" fill="#FF6700" fill-opacity="0.13"/>
<path d="M2000.28 568.516C2001.45 569.546 2003.38 569.379 2004.45 568.153C2005.53 566.927 2005.43 564.993 2004.26 563.963C2003.08 562.933 2001.15 563.101 2000.08 564.326C1999.01 565.552 1999.1 567.486 2000.28 568.516Z" fill="#FF6700" fill-opacity="0.13"/>
<path d="M1747.94 392.402C1749.12 393.432 1751.05 393.265 1752.12 392.039C1753.19 390.813 1753.1 388.879 1751.92 387.849C1750.74 386.819 1748.81 386.987 1747.74 388.212C1746.67 389.438 1746.76 391.372 1747.94 392.402Z" fill="#FF6700" fill-opacity="0.13"/>
<path d="M1772.18 413.595C1773.36 414.625 1775.29 414.457 1776.36 413.232C1777.43 412.006 1777.34 410.072 1776.16 409.042C1774.98 408.012 1773.06 408.179 1771.98 409.405C1770.91 410.631 1771 412.565 1772.18 413.595Z" fill="#FF6700" fill-opacity="0.13"/>
<path d="M1796.42 434.787C1797.6 435.818 1799.53 435.65 1800.6 434.424C1801.67 433.198 1801.58 431.265 1800.4 430.235C1799.23 429.204 1797.3 429.372 1796.22 430.598C1795.15 431.824 1795.24 433.757 1796.42 434.787Z" fill="#FF6700" fill-opacity="0.13"/>
<path d="M1820.66 455.98C1821.84 457.01 1823.77 456.843 1824.84 455.617C1825.91 454.391 1825.82 452.457 1824.64 451.427C1823.47 450.397 1821.54 450.565 1820.47 451.79C1819.39 453.016 1819.49 454.95 1820.66 455.98Z" fill="#FF6700" fill-opacity="0.13"/>
<path d="M1844.9 477.173C1846.08 478.203 1848.01 478.035 1849.08 476.809C1850.16 475.584 1850.06 473.65 1848.89 472.62C1847.71 471.59 1845.78 471.757 1844.71 472.983C1843.64 474.209 1843.73 476.143 1844.9 477.173Z" fill="#FF6700" fill-opacity="0.13"/>
<path d="M1869.15 498.366C1870.32 499.396 1872.25 499.228 1873.32 498.002C1874.4 496.776 1874.3 494.843 1873.13 493.813C1871.95 492.782 1870.02 492.95 1868.95 494.176C1867.88 495.402 1867.97 497.335 1869.15 498.366Z" fill="#FF6700" fill-opacity="0.13"/>
<path d="M1893.39 519.558C1894.57 520.588 1896.49 520.421 1897.57 519.195C1898.64 517.969 1898.55 516.036 1897.37 515.005C1896.19 513.975 1894.26 514.143 1893.19 515.368C1892.12 516.594 1892.21 518.528 1893.39 519.558Z" fill="#FF6700" fill-opacity="0.13"/>
<path d="M1917.63 540.751C1918.81 541.781 1920.73 541.613 1921.81 540.388C1922.88 539.162 1922.79 537.228 1921.61 536.198C1920.43 535.168 1918.5 535.335 1917.43 536.561C1916.36 537.787 1916.45 539.721 1917.63 540.751Z" fill="#FF6700" fill-opacity="0.13"/>
<path d="M1941.87 561.943C1943.05 562.974 1944.98 562.806 1946.05 561.58C1947.12 560.354 1947.03 558.421 1945.85 557.391C1944.67 556.36 1942.74 556.528 1941.67 557.754C1940.6 558.979 1940.69 560.913 1941.87 561.943Z" fill="#FF6700" fill-opacity="0.13"/>
<path d="M1966.11 583.136C1967.29 584.166 1969.22 583.999 1970.29 582.773C1971.36 581.547 1971.27 579.613 1970.09 578.583C1968.91 577.553 1966.98 577.721 1965.91 578.946C1964.84 580.172 1964.93 582.106 1966.11 583.136Z" fill="#FF6700" fill-opacity="0.13"/>
<path d="M1990.35 604.329C1991.53 605.359 1993.46 605.191 1994.53 603.966C1995.6 602.74 1995.51 600.806 1994.33 599.776C1993.15 598.746 1991.22 598.913 1990.15 600.139C1989.08 601.365 1989.17 603.299 1990.35 604.329Z" fill="#FF6700" fill-opacity="0.13"/>
<path d="M1762.26 449.407C1763.44 450.438 1765.36 450.27 1766.44 449.044C1767.51 447.818 1767.42 445.885 1766.24 444.854C1765.06 443.824 1763.13 443.992 1762.06 445.218C1760.99 446.443 1761.08 448.377 1762.26 449.407Z" fill="#FF6700" fill-opacity="0.13"/>
<path d="M1786.5 470.6C1787.68 471.63 1789.61 471.463 1790.68 470.237C1791.75 469.011 1791.66 467.077 1790.48 466.047C1789.3 465.017 1787.37 465.184 1786.3 466.41C1785.23 467.636 1785.32 469.57 1786.5 470.6Z" fill="#FF6700" fill-opacity="0.13"/>
<path d="M1810.74 491.793C1811.95 492.849 1813.82 492.687 1814.92 491.43C1816.02 490.172 1815.93 488.297 1814.72 487.24C1813.51 486.183 1811.64 486.346 1810.54 487.603C1809.44 488.86 1809.53 490.736 1810.74 491.793Z" fill="#FF6700" fill-opacity="0.13"/>
<path d="M1834.98 512.985C1836.16 514.016 1838.09 513.848 1839.16 512.622C1840.23 511.396 1840.14 509.463 1838.96 508.433C1837.78 507.402 1835.85 507.57 1834.78 508.796C1833.71 510.022 1833.8 511.955 1834.98 512.985Z" fill="#FF6700" fill-opacity="0.13"/>
<path d="M1859.22 534.178C1860.4 535.208 1862.33 535.041 1863.4 533.815C1864.47 532.589 1864.38 530.655 1863.2 529.625C1862.02 528.595 1860.09 528.763 1859.02 529.988C1857.95 531.214 1858.04 533.148 1859.22 534.178Z" fill="#FF6700" fill-opacity="0.13"/>
<path d="M1883.46 555.371C1884.64 556.401 1886.57 556.233 1887.64 555.007C1888.71 553.782 1888.62 551.848 1887.44 550.818C1886.26 549.788 1884.34 549.955 1883.26 551.181C1882.19 552.407 1882.28 554.341 1883.46 555.371Z" fill="#FF6700" fill-opacity="0.13"/>
<path d="M1907.7 576.563C1908.88 577.594 1910.81 577.426 1911.88 576.2C1912.95 574.974 1912.86 573.041 1911.68 572.01C1910.51 570.98 1908.58 571.148 1907.5 572.374C1906.43 573.599 1906.52 575.533 1907.7 576.563Z" fill="#FF6700" fill-opacity="0.13"/>
<path d="M1931.94 597.756C1933.15 598.813 1935.02 598.65 1936.12 597.393C1937.22 596.136 1937.13 594.26 1935.92 593.203C1934.72 592.147 1932.85 592.309 1931.75 593.566C1930.65 594.824 1930.74 596.7 1931.94 597.756Z" fill="#FF6700" fill-opacity="0.13"/>
<path d="M1956.19 618.949C1957.36 619.979 1959.29 619.811 1960.36 618.586C1961.44 617.36 1961.34 615.426 1960.17 614.396C1958.99 613.366 1957.06 613.533 1955.99 614.759C1954.92 615.985 1955.01 617.919 1956.19 618.949Z" fill="#FF6700" fill-opacity="0.13"/>
<path d="M1980.43 640.141C1981.6 641.172 1983.53 641.004 1984.6 639.778C1985.68 638.552 1985.58 636.619 1984.41 635.589C1983.23 634.558 1981.3 634.726 1980.23 635.952C1979.16 637.177 1979.25 639.111 1980.43 640.141Z" fill="#FF6700" fill-opacity="0.13"/>
<path d="M1752.33 485.22C1753.51 486.25 1755.44 486.083 1756.51 484.857C1757.58 483.631 1757.49 481.697 1756.31 480.667C1755.13 479.637 1753.21 479.805 1752.13 481.03C1751.06 482.256 1751.15 484.19 1752.33 485.22Z" fill="#FF6700" fill-opacity="0.13"/>
<path d="M1776.57 506.413C1777.75 507.443 1779.68 507.275 1780.75 506.049C1781.82 504.824 1781.73 502.89 1780.55 501.86C1779.38 500.83 1777.45 500.997 1776.38 502.223C1775.3 503.449 1775.4 505.382 1776.57 506.413Z" fill="#FF6700" fill-opacity="0.13"/>
<path d="M1800.81 527.605C1801.99 528.635 1803.92 528.468 1804.99 527.242C1806.06 526.016 1805.97 524.083 1804.79 523.052C1803.62 522.022 1801.69 522.19 1800.62 523.416C1799.54 524.641 1799.64 526.575 1800.81 527.605Z" fill="#FF6700" fill-opacity="0.13"/>
<path d="M1825.06 548.798C1826.23 549.828 1828.16 549.661 1829.23 548.435C1830.31 547.209 1830.21 545.275 1829.04 544.245C1827.86 543.215 1825.93 543.383 1824.86 544.609C1823.79 545.834 1823.88 547.768 1825.06 548.798Z" fill="#FF6700" fill-opacity="0.13"/>
<path d="M1849.3 569.991C1850.51 571.047 1852.38 570.885 1853.48 569.628C1854.57 568.37 1854.49 566.495 1853.28 565.438C1852.07 564.381 1850.2 564.544 1849.1 565.801C1848 567.058 1848.09 568.934 1849.3 569.991Z" fill="#FF6700" fill-opacity="0.13"/>
<path d="M1873.54 591.183C1874.72 592.214 1876.64 592.046 1877.72 590.82C1878.79 589.594 1878.7 587.661 1877.52 586.63C1876.34 585.6 1874.41 585.768 1873.34 586.994C1872.27 588.219 1872.36 590.153 1873.54 591.183Z" fill="#FF6700" fill-opacity="0.13"/>
<path d="M1897.78 612.376C1898.96 613.406 1900.89 613.239 1901.96 612.013C1903.03 610.787 1902.94 608.853 1901.76 607.823C1900.58 606.793 1898.65 606.96 1897.58 608.186C1896.51 609.412 1896.6 611.346 1897.78 612.376Z" fill="#FF6700" fill-opacity="0.13"/>
<path d="M1922.02 633.569C1923.2 634.599 1925.13 634.431 1926.2 633.205C1927.27 631.98 1927.18 630.046 1926 629.016C1924.82 627.986 1922.89 628.153 1921.82 629.379C1920.75 630.605 1920.84 632.538 1922.02 633.569Z" fill="#FF6700" fill-opacity="0.13"/>
<path d="M1946.26 654.761C1947.44 655.792 1949.37 655.624 1950.44 654.398C1951.51 653.172 1951.42 651.239 1950.24 650.208C1949.06 649.178 1947.13 649.346 1946.06 650.572C1944.99 651.798 1945.08 653.731 1946.26 654.761Z" fill="#FF6700" fill-opacity="0.13"/>
</g>
</g>
<mask id="mask3" mask-type="alpha" maskUnits="userSpaceOnUse" x="394" y="895" width="630" height="635">
<ellipse cx="708.929" cy="1212.59" rx="314.881" ry="317.356" fill="#C4C4C4"/>
</mask>
<g mask="url(#mask3)">
<g clip-path="url(#clip2)">
<path d="M941.794 910.806C942.972 911.836 944.901 911.668 945.973 910.443C947.044 909.217 946.953 907.283 945.774 906.253C944.596 905.223 942.667 905.39 941.596 906.616C940.524 907.842 940.616 909.776 941.794 910.806Z" fill="#FF6700" fill-opacity="0.13"/>
<path d="M966.035 931.998C967.213 933.029 969.142 932.861 970.214 931.635C971.285 930.409 971.194 928.476 970.015 927.446C968.837 926.415 966.908 926.583 965.837 927.809C964.765 929.035 964.857 930.968 966.035 931.998Z" fill="#FF6700" fill-opacity="0.13"/>
<path d="M990.276 953.191C991.454 954.221 993.383 954.054 994.455 952.828C995.526 951.602 995.435 949.668 994.256 948.638C993.078 947.608 991.149 947.776 990.078 949.001C989.006 950.227 989.098 952.161 990.276 953.191Z" fill="#FF6700" fill-opacity="0.13"/>
<path d="M1014.52 974.384C1015.73 975.44 1017.6 975.278 1018.7 974.021C1019.79 972.763 1019.71 970.887 1018.5 969.831C1017.29 968.774 1015.42 968.937 1014.32 970.194C1013.22 971.451 1013.31 973.327 1014.52 974.384Z" fill="#FF6700" fill-opacity="0.13"/>
<path d="M883.387 904.233C884.566 905.263 886.494 905.096 887.566 903.87C888.637 902.644 888.546 900.71 887.368 899.68C886.189 898.65 884.261 898.818 883.189 900.043C882.117 901.269 882.209 903.203 883.387 904.233Z" fill="#FF6700" fill-opacity="0.13"/>
<path d="M907.628 925.426C908.807 926.456 910.735 926.288 911.807 925.063C912.878 923.837 912.787 921.903 911.609 920.873C910.43 919.843 908.502 920.01 907.43 921.236C906.358 922.462 906.45 924.396 907.628 925.426Z" fill="#FF6700" fill-opacity="0.13"/>
<path d="M931.869 946.619C933.078 947.675 934.949 947.513 936.048 946.255C937.147 944.998 937.058 943.122 935.85 942.066C934.641 941.009 932.77 941.172 931.671 942.429C930.572 943.686 930.661 945.562 931.869 946.619Z" fill="#FF6700" fill-opacity="0.13"/>
<path d="M956.11 967.811C957.289 968.841 959.217 968.674 960.289 967.448C961.36 966.222 961.269 964.288 960.091 963.258C958.912 962.228 956.984 962.396 955.912 963.621C954.84 964.847 954.932 966.781 956.11 967.811Z" fill="#FF6700" fill-opacity="0.13"/>
<path d="M980.351 989.004C981.529 990.034 983.458 989.866 984.53 988.641C985.601 987.415 985.51 985.481 984.332 984.451C983.153 983.421 981.225 983.588 980.153 984.814C979.081 986.04 979.173 987.974 980.351 989.004Z" fill="#FF6700" fill-opacity="0.13"/>
<path d="M1004.59 1010.2C1005.77 1011.23 1007.7 1011.06 1008.77 1009.83C1009.84 1008.61 1009.75 1006.67 1008.57 1005.64C1007.39 1004.61 1005.47 1004.78 1004.39 1006.01C1003.32 1007.23 1003.41 1009.17 1004.59 1010.2Z" fill="#FF6700" fill-opacity="0.13"/>
<path d="M824.981 897.66C826.159 898.69 828.087 898.523 829.159 897.297C830.231 896.071 830.139 894.138 828.961 893.107C827.783 892.077 825.854 892.245 824.782 893.471C823.711 894.696 823.802 896.63 824.981 897.66Z" fill="#FF6700" fill-opacity="0.13"/>
<path d="M849.221 918.853C850.4 919.883 852.328 919.716 853.4 918.49C854.472 917.264 854.38 915.33 853.202 914.3C852.023 913.27 850.095 913.438 849.023 914.663C847.952 915.889 848.043 917.823 849.221 918.853Z" fill="#FF6700" fill-opacity="0.13"/>
<path d="M873.462 940.046C874.641 941.076 876.569 940.908 877.641 939.682C878.713 938.457 878.621 936.523 877.443 935.493C876.264 934.463 874.336 934.63 873.264 935.856C872.193 937.082 872.284 939.015 873.462 940.046Z" fill="#FF6700" fill-opacity="0.13"/>
<path d="M897.703 961.238C898.882 962.268 900.81 962.101 901.882 960.875C902.954 959.649 902.862 957.716 901.684 956.685C900.505 955.655 898.577 955.823 897.505 957.049C896.434 958.274 896.525 960.208 897.703 961.238Z" fill="#FF6700" fill-opacity="0.13"/>
<path d="M921.944 982.431C923.123 983.461 925.051 983.293 926.123 982.068C927.195 980.842 927.103 978.908 925.925 977.878C924.746 976.848 922.818 977.015 921.746 978.241C920.674 979.467 920.766 981.401 921.944 982.431Z" fill="#FF6700" fill-opacity="0.13"/>
<path d="M946.185 1003.62C947.364 1004.65 949.292 1004.49 950.364 1003.26C951.436 1002.03 951.344 1000.1 950.166 999.071C948.987 998.041 947.059 998.208 945.987 999.434C944.915 1000.66 945.007 1002.59 946.185 1003.62Z" fill="#FF6700" fill-opacity="0.13"/>
<path d="M970.427 1024.82C971.605 1025.85 973.534 1025.68 974.605 1024.45C975.677 1023.23 975.585 1021.29 974.407 1020.26C973.229 1019.23 971.3 1019.4 970.228 1020.63C969.157 1021.85 969.248 1023.79 970.427 1024.82Z" fill="#FF6700" fill-opacity="0.13"/>
<path d="M994.667 1046.01C995.846 1047.04 997.774 1046.87 998.846 1045.65C999.918 1044.42 999.826 1042.49 998.648 1041.46C997.469 1040.43 995.541 1040.59 994.469 1041.82C993.397 1043.05 993.489 1044.98 994.667 1046.01Z" fill="#FF6700" fill-opacity="0.13"/>
<path d="M1018.91 1067.2C1020.09 1068.23 1022.02 1068.06 1023.09 1066.84C1024.16 1065.61 1024.07 1063.68 1022.89 1062.65C1021.71 1061.62 1019.78 1061.79 1018.71 1063.01C1017.64 1064.24 1017.73 1066.17 1018.91 1067.2Z" fill="#FF6700" fill-opacity="0.13"/>
<path d="M790.815 912.28C791.993 913.31 793.922 913.143 794.993 911.917C796.065 910.691 795.973 908.758 794.795 907.727C793.617 906.697 791.688 906.865 790.616 908.091C789.545 909.316 789.636 911.25 790.815 912.28Z" fill="#FF6700" fill-opacity="0.13"/>
<path d="M815.056 933.473C816.234 934.503 818.163 934.335 819.234 933.11C820.306 931.884 820.214 929.95 819.036 928.92C817.858 927.89 815.929 928.057 814.857 929.283C813.786 930.509 813.877 932.443 815.056 933.473Z" fill="#FF6700" fill-opacity="0.13"/>
<path d="M839.297 954.665C840.475 955.696 842.404 955.528 843.475 954.302C844.547 953.076 844.455 951.143 843.277 950.113C842.099 949.082 840.17 949.25 839.098 950.476C838.027 951.702 838.118 953.635 839.297 954.665Z" fill="#FF6700" fill-opacity="0.13"/>
<path d="M863.538 975.858C864.716 976.888 866.645 976.721 867.716 975.495C868.788 974.269 868.696 972.336 867.518 971.305C866.34 970.275 864.411 970.443 863.339 971.669C862.268 972.894 862.359 974.828 863.538 975.858Z" fill="#FF6700" fill-opacity="0.13"/>
<path d="M887.779 997.051C888.957 998.081 890.886 997.913 891.957 996.688C893.029 995.462 892.937 993.528 891.759 992.498C890.581 991.468 888.652 991.635 887.58 992.861C886.509 994.087 886.6 996.021 887.779 997.051Z" fill="#FF6700" fill-opacity="0.13"/>
<path d="M912.02 1018.24C913.198 1019.27 915.127 1019.11 916.198 1017.88C917.27 1016.65 917.178 1014.72 916 1013.69C914.822 1012.66 912.893 1012.83 911.821 1014.05C910.75 1015.28 910.841 1017.21 912.02 1018.24Z" fill="#FF6700" fill-opacity="0.13"/>
<path d="M936.261 1039.44C937.439 1040.47 939.367 1040.3 940.439 1039.07C941.511 1037.85 941.419 1035.91 940.241 1034.88C939.063 1033.85 937.134 1034.02 936.062 1035.25C934.991 1036.47 935.082 1038.41 936.261 1039.44Z" fill="#FF6700" fill-opacity="0.13"/>
<path d="M960.501 1060.63C961.68 1061.66 963.608 1061.49 964.68 1060.27C965.752 1059.04 965.66 1057.11 964.482 1056.08C963.303 1055.05 961.375 1055.21 960.303 1056.44C959.232 1057.66 959.323 1059.6 960.501 1060.63Z" fill="#FF6700" fill-opacity="0.13"/>
<path d="M984.742 1081.82C985.921 1082.85 987.849 1082.68 988.921 1081.46C989.993 1080.23 989.901 1078.3 988.723 1077.27C987.544 1076.24 985.616 1076.41 984.544 1077.63C983.473 1078.86 983.564 1080.79 984.742 1081.82Z" fill="#FF6700" fill-opacity="0.13"/>
<path d="M732.408 905.707C733.586 906.738 735.515 906.57 736.587 905.344C737.658 904.118 737.567 902.185 736.388 901.154C735.21 900.124 733.281 900.292 732.21 901.518C731.138 902.743 731.23 904.677 732.408 905.707Z" fill="#FF6700" fill-opacity="0.13"/>
<path d="M756.649 926.9C757.827 927.93 759.756 927.763 760.828 926.537C761.899 925.311 761.808 923.377 760.629 922.347C759.451 921.317 757.522 921.485 756.451 922.71C755.379 923.936 755.471 925.87 756.649 926.9Z" fill="#FF6700" fill-opacity="0.13"/>
<path d="M780.89 948.093C782.068 949.123 783.997 948.955 785.069 947.73C786.14 946.504 786.049 944.57 784.87 943.54C783.692 942.51 781.763 942.677 780.692 943.903C779.62 945.129 779.712 947.063 780.89 948.093Z" fill="#FF6700" fill-opacity="0.13"/>
<path d="M805.131 969.285C806.309 970.316 808.238 970.148 809.31 968.922C810.381 967.696 810.29 965.763 809.111 964.732C807.933 963.702 806.004 963.87 804.933 965.096C803.861 966.321 803.952 968.255 805.131 969.285Z" fill="#FF6700" fill-opacity="0.13"/>
<path d="M829.372 990.478C830.55 991.508 832.479 991.341 833.55 990.115C834.622 988.889 834.531 986.955 833.352 985.925C832.174 984.895 830.245 985.063 829.174 986.288C828.102 987.514 828.193 989.448 829.372 990.478Z" fill="#FF6700" fill-opacity="0.13"/>
<path d="M853.613 1011.67C854.791 1012.7 856.72 1012.53 857.791 1011.31C858.863 1010.08 858.772 1008.15 857.593 1007.12C856.415 1006.09 854.486 1006.26 853.415 1007.48C852.343 1008.71 852.434 1010.64 853.613 1011.67Z" fill="#FF6700" fill-opacity="0.13"/>
<path d="M877.854 1032.86C879.032 1033.89 880.961 1033.73 882.032 1032.5C883.104 1031.27 883.013 1029.34 881.834 1028.31C880.656 1027.28 878.727 1027.45 877.656 1028.67C876.584 1029.9 876.675 1031.83 877.854 1032.86Z" fill="#FF6700" fill-opacity="0.13"/>
<path d="M902.095 1054.06C903.273 1055.09 905.202 1054.92 906.273 1053.69C907.345 1052.47 907.254 1050.53 906.075 1049.5C904.897 1048.47 902.968 1048.64 901.897 1049.87C900.825 1051.09 900.916 1053.03 902.095 1054.06Z" fill="#FF6700" fill-opacity="0.13"/>
<path d="M926.336 1075.25C927.514 1076.28 929.443 1076.11 930.514 1074.89C931.586 1073.66 931.495 1071.73 930.316 1070.7C929.138 1069.67 927.209 1069.83 926.137 1071.06C925.066 1072.28 925.157 1074.22 926.336 1075.25Z" fill="#FF6700" fill-opacity="0.13"/>
<path d="M674.001 899.135C675.179 900.165 677.108 899.997 678.18 898.771C679.251 897.546 679.16 895.612 677.981 894.582C676.803 893.551 674.874 893.719 673.803 894.945C672.731 896.171 672.823 898.104 674.001 899.135Z" fill="#FF6700" fill-opacity="0.13"/>
<path d="M698.242 920.327C699.421 921.358 701.349 921.19 702.421 919.964C703.492 918.738 703.401 916.805 702.223 915.774C701.044 914.744 699.116 914.912 698.044 916.138C696.972 917.363 697.064 919.297 698.242 920.327Z" fill="#FF6700" fill-opacity="0.13"/>
<path d="M722.483 941.52C723.692 942.577 725.563 942.414 726.662 941.157C727.761 939.899 727.672 938.024 726.464 936.967C725.255 935.91 723.384 936.073 722.285 937.33C721.186 938.588 721.275 940.463 722.483 941.52Z" fill="#FF6700" fill-opacity="0.13"/>
<path d="M746.724 962.713C747.903 963.743 749.831 963.575 750.903 962.35C751.974 961.124 751.883 959.19 750.705 958.16C749.526 957.13 747.598 957.297 746.526 958.523C745.454 959.749 745.546 961.683 746.724 962.713Z" fill="#FF6700" fill-opacity="0.13"/>
<path d="M770.965 983.905C772.143 984.935 774.072 984.768 775.144 983.542C776.215 982.316 776.124 980.383 774.945 979.352C773.767 978.322 771.839 978.49 770.767 979.716C769.695 980.941 769.787 982.875 770.965 983.905Z" fill="#FF6700" fill-opacity="0.13"/>
<path d="M795.206 1005.1C796.384 1006.13 798.313 1005.96 799.385 1004.73C800.456 1003.51 800.365 1001.58 799.186 1000.55C798.008 999.515 796.079 999.683 795.008 1000.91C793.936 1002.13 794.028 1004.07 795.206 1005.1Z" fill="#FF6700" fill-opacity="0.13"/>
<path d="M819.447 1026.29C820.625 1027.32 822.554 1027.15 823.626 1025.93C824.697 1024.7 824.606 1022.77 823.427 1021.74C822.249 1020.71 820.32 1020.88 819.249 1022.1C818.177 1023.33 818.269 1025.26 819.447 1026.29Z" fill="#FF6700" fill-opacity="0.13"/>
<path d="M843.688 1047.48C844.897 1048.54 846.767 1048.38 847.867 1047.12C848.966 1045.86 848.877 1043.99 847.668 1042.93C846.46 1041.87 844.589 1042.04 843.49 1043.29C842.391 1044.55 842.479 1046.43 843.688 1047.48Z" fill="#FF6700" fill-opacity="0.13"/>
<path d="M867.929 1068.68C869.107 1069.71 871.036 1069.54 872.108 1068.31C873.179 1067.09 873.088 1065.15 871.909 1064.12C870.731 1063.09 868.802 1063.26 867.731 1064.49C866.659 1065.71 866.751 1067.65 867.929 1068.68Z" fill="#FF6700" fill-opacity="0.13"/>
<path d="M892.17 1089.87C893.348 1090.9 895.277 1090.73 896.349 1089.51C897.42 1088.28 897.329 1086.35 896.15 1085.32C894.972 1084.29 893.043 1084.45 891.972 1085.68C890.9 1086.9 890.992 1088.84 892.17 1089.87Z" fill="#FF6700" fill-opacity="0.13"/>
<path d="M639.835 913.755C641.044 914.811 642.915 914.649 644.014 913.391C645.113 912.134 645.024 910.258 643.816 909.202C642.607 908.145 640.736 908.308 639.637 909.565C638.538 910.822 638.627 912.698 639.835 913.755Z" fill="#FF6700" fill-opacity="0.13"/>
<path d="M664.076 934.947C665.255 935.977 667.183 935.81 668.255 934.584C669.327 933.358 669.235 931.425 668.057 930.394C666.878 929.364 664.95 929.532 663.878 930.758C662.807 931.983 662.898 933.917 664.076 934.947Z" fill="#FF6700" fill-opacity="0.13"/>
<path d="M688.317 956.14C689.496 957.17 691.424 957.002 692.496 955.777C693.567 954.551 693.476 952.617 692.298 951.587C691.119 950.557 689.191 950.724 688.119 951.95C687.047 953.176 687.139 955.11 688.317 956.14Z" fill="#FF6700" fill-opacity="0.13"/>
<path d="M712.558 977.332C713.737 978.363 715.665 978.195 716.737 976.969C717.809 975.743 717.717 973.81 716.539 972.78C715.36 971.749 713.432 971.917 712.36 973.143C711.289 974.369 711.38 976.302 712.558 977.332Z" fill="#FF6700" fill-opacity="0.13"/>
<path d="M736.799 998.525C737.978 999.555 739.906 999.388 740.978 998.162C742.05 996.936 741.958 995.003 740.78 993.972C739.601 992.942 737.673 993.11 736.601 994.336C735.529 995.561 735.621 997.495 736.799 998.525Z" fill="#FF6700" fill-opacity="0.13"/>
<path d="M761.04 1019.72C762.249 1020.77 764.12 1020.61 765.219 1019.35C766.318 1018.1 766.229 1016.22 765.021 1015.17C763.812 1014.11 761.941 1014.27 760.842 1015.53C759.743 1016.79 759.832 1018.66 761.04 1019.72Z" fill="#FF6700" fill-opacity="0.13"/>
<path d="M785.281 1040.91C786.46 1041.94 788.388 1041.77 789.46 1040.55C790.531 1039.32 790.44 1037.39 789.262 1036.36C788.083 1035.33 786.155 1035.5 785.083 1036.72C784.011 1037.95 784.103 1039.88 785.281 1040.91Z" fill="#FF6700" fill-opacity="0.13"/>
<path d="M809.522 1062.1C810.7 1063.13 812.629 1062.97 813.701 1061.74C814.772 1060.51 814.681 1058.58 813.502 1057.55C812.324 1056.52 810.395 1056.69 809.324 1057.91C808.252 1059.14 808.344 1061.07 809.522 1062.1Z" fill="#FF6700" fill-opacity="0.13"/>
<path d="M833.763 1083.3C834.942 1084.33 836.87 1084.16 837.942 1082.93C839.013 1081.71 838.922 1079.77 837.744 1078.74C836.565 1077.71 834.637 1077.88 833.565 1079.11C832.493 1080.33 832.585 1082.27 833.763 1083.3Z" fill="#FF6700" fill-opacity="0.13"/>
<path d="M581.429 907.182C582.607 908.212 584.536 908.044 585.607 906.819C586.679 905.593 586.588 903.659 585.409 902.629C584.231 901.599 582.302 901.766 581.23 902.992C580.159 904.218 580.25 906.152 581.429 907.182Z" fill="#FF6700" fill-opacity="0.13"/>
<path d="M605.67 928.374C606.848 929.405 608.777 929.237 609.848 928.011C610.92 926.785 610.828 924.852 609.65 923.821C608.472 922.791 606.543 922.959 605.471 924.185C604.4 925.41 604.491 927.344 605.67 928.374Z" fill="#FF6700" fill-opacity="0.13"/>
<path d="M629.911 949.567C631.089 950.597 633.018 950.43 634.089 949.204C635.161 947.978 635.069 946.044 633.891 945.014C632.713 943.984 630.784 944.152 629.712 945.377C628.641 946.603 628.732 948.537 629.911 949.567Z" fill="#FF6700" fill-opacity="0.13"/>
<path d="M654.152 970.76C655.33 971.79 657.259 971.622 658.33 970.396C659.402 969.171 659.31 967.237 658.132 966.207C656.954 965.177 655.025 965.344 653.953 966.57C652.882 967.796 652.973 969.73 654.152 970.76Z" fill="#FF6700" fill-opacity="0.13"/>
<path d="M678.393 991.953C679.571 992.983 681.5 992.815 682.571 991.589C683.643 990.363 683.551 988.43 682.373 987.4C681.195 986.369 679.266 986.537 678.194 987.763C677.123 988.989 677.214 990.922 678.393 991.953Z" fill="#FF6700" fill-opacity="0.13"/>
<path d="M702.634 1013.15C703.812 1014.18 705.741 1014.01 706.812 1012.78C707.884 1011.56 707.792 1009.62 706.614 1008.59C705.436 1007.56 703.507 1007.73 702.435 1008.96C701.364 1010.18 701.455 1012.12 702.634 1013.15Z" fill="#FF6700" fill-opacity="0.13"/>
<path d="M726.875 1034.34C728.053 1035.37 729.981 1035.2 731.053 1033.97C732.125 1032.75 732.033 1030.81 730.855 1029.78C729.677 1028.75 727.748 1028.92 726.676 1030.15C725.605 1031.37 725.696 1033.31 726.875 1034.34Z" fill="#FF6700" fill-opacity="0.13"/>
<path d="M751.115 1055.53C752.294 1056.56 754.222 1056.39 755.294 1055.17C756.366 1053.94 756.274 1052.01 755.096 1050.98C753.917 1049.95 751.989 1050.12 750.917 1051.34C749.846 1052.57 749.937 1054.5 751.115 1055.53Z" fill="#FF6700" fill-opacity="0.13"/>
<path d="M775.356 1076.72C776.535 1077.75 778.463 1077.59 779.535 1076.36C780.607 1075.13 780.515 1073.2 779.337 1072.17C778.158 1071.14 776.23 1071.31 775.158 1072.53C774.087 1073.76 774.178 1075.69 775.356 1076.72Z" fill="#FF6700" fill-opacity="0.13"/>
<path d="M523.022 900.609C524.2 901.639 526.129 901.472 527.201 900.246C528.272 899.02 528.181 897.086 527.002 896.056C525.824 895.026 523.895 895.194 522.824 896.419C521.752 897.645 521.844 899.579 523.022 900.609Z" fill="#FF6700" fill-opacity="0.13"/>
<path d="M547.263 921.802C548.441 922.832 550.37 922.664 551.441 921.439C552.513 920.213 552.421 918.279 551.243 917.249C550.065 916.219 548.136 916.386 547.064 917.612C545.993 918.838 546.084 920.772 547.263 921.802Z" fill="#FF6700" fill-opacity="0.13"/>
<path d="M571.504 942.994C572.682 944.025 574.611 943.857 575.683 942.631C576.754 941.405 576.663 939.472 575.484 938.441C574.306 937.411 572.377 937.579 571.306 938.805C570.234 940.03 570.326 941.964 571.504 942.994Z" fill="#FF6700" fill-opacity="0.13"/>
<path d="M595.745 964.187C596.923 965.217 598.852 965.05 599.924 963.824C600.995 962.598 600.904 960.664 599.725 959.634C598.547 958.604 596.618 958.772 595.547 959.997C594.475 961.223 594.566 963.157 595.745 964.187Z" fill="#FF6700" fill-opacity="0.13"/>
<path d="M619.986 985.38C621.164 986.41 623.093 986.242 624.164 985.017C625.236 983.791 625.145 981.857 623.966 980.827C622.788 979.797 620.859 979.964 619.788 981.19C618.716 982.416 618.807 984.35 619.986 985.38Z" fill="#FF6700" fill-opacity="0.13"/>
<path d="M644.227 1006.57C645.405 1007.6 647.334 1007.43 648.405 1006.21C649.477 1004.98 649.385 1003.05 648.207 1002.02C647.029 1000.99 645.1 1001.16 644.028 1002.38C642.957 1003.61 643.048 1005.54 644.227 1006.57Z" fill="#FF6700" fill-opacity="0.13"/>
<path d="M668.468 1027.77C669.646 1028.8 671.575 1028.63 672.646 1027.4C673.718 1026.18 673.627 1024.24 672.448 1023.21C671.27 1022.18 669.341 1022.35 668.27 1023.58C667.198 1024.8 667.289 1026.73 668.468 1027.77Z" fill="#FF6700" fill-opacity="0.13"/>
<path d="M692.709 1048.96C693.887 1049.99 695.816 1049.82 696.887 1048.59C697.959 1047.37 697.868 1045.44 696.689 1044.4C695.511 1043.37 693.582 1043.54 692.511 1044.77C691.439 1045.99 691.53 1047.93 692.709 1048.96Z" fill="#FF6700" fill-opacity="0.13"/>
<path d="M716.95 1070.15C718.128 1071.18 720.057 1071.01 721.128 1069.79C722.2 1068.56 722.109 1066.63 720.93 1065.6C719.752 1064.57 717.823 1064.73 716.751 1065.96C715.68 1067.19 715.771 1069.12 716.95 1070.15Z" fill="#FF6700" fill-opacity="0.13"/>
<path d="M741.191 1091.34C742.369 1092.37 744.298 1092.21 745.37 1090.98C746.441 1089.75 746.35 1087.82 745.171 1086.79C743.993 1085.76 742.064 1085.93 740.993 1087.15C739.921 1088.38 740.013 1090.31 741.191 1091.34Z" fill="#FF6700" fill-opacity="0.13"/>
<path d="M488.856 915.229C490.034 916.259 491.963 916.091 493.035 914.866C494.106 913.64 494.015 911.706 492.836 910.676C491.658 909.646 489.729 909.813 488.658 911.039C487.586 912.265 487.678 914.199 488.856 915.229Z" fill="#FF6700" fill-opacity="0.13"/>
<path d="M513.097 936.422C514.275 937.452 516.204 937.284 517.276 936.058C518.347 934.833 518.256 932.899 517.077 931.869C515.899 930.838 513.97 931.006 512.899 932.232C511.827 933.458 511.919 935.391 513.097 936.422Z" fill="#FF6700" fill-opacity="0.13"/>
<path d="M537.338 957.614C538.517 958.645 540.445 958.477 541.517 957.251C542.588 956.025 542.497 954.092 541.319 953.061C540.14 952.031 538.212 952.199 537.14 953.425C536.068 954.65 536.16 956.584 537.338 957.614Z" fill="#FF6700" fill-opacity="0.13"/>
<path d="M561.579 978.807C562.757 979.837 564.686 979.669 565.758 978.444C566.829 977.218 566.738 975.284 565.56 974.254C564.381 973.224 562.453 973.391 561.381 974.617C560.309 975.843 560.401 977.777 561.579 978.807Z" fill="#FF6700" fill-opacity="0.13"/>
<path d="M585.82 1000C586.998 1001.03 588.927 1000.86 589.999 999.636C591.07 998.411 590.979 996.477 589.8 995.447C588.622 994.416 586.694 994.584 585.622 995.81C584.55 997.036 584.642 998.969 585.82 1000Z" fill="#FF6700" fill-opacity="0.13"/>
<path d="M610.061 1021.19C611.239 1022.22 613.168 1022.05 614.24 1020.83C615.311 1019.6 615.22 1017.67 614.041 1016.64C612.863 1015.61 610.934 1015.78 609.863 1017C608.791 1018.23 608.883 1020.16 610.061 1021.19Z" fill="#FF6700" fill-opacity="0.13"/>
<path d="M634.302 1042.38C635.48 1043.42 637.409 1043.25 638.481 1042.02C639.552 1040.8 639.461 1038.86 638.282 1037.83C637.104 1036.8 635.175 1036.97 634.104 1038.2C633.032 1039.42 633.124 1041.35 634.302 1042.38Z" fill="#FF6700" fill-opacity="0.13"/>
<path d="M658.543 1063.58C659.721 1064.61 661.65 1064.44 662.722 1063.21C663.793 1061.99 663.702 1060.05 662.523 1059.02C661.345 1057.99 659.416 1058.16 658.345 1059.39C657.273 1060.61 657.365 1062.55 658.543 1063.58Z" fill="#FF6700" fill-opacity="0.13"/>
<path d="M682.784 1084.77C683.962 1085.8 685.891 1085.63 686.963 1084.41C688.034 1083.18 687.943 1081.25 686.764 1080.22C685.586 1079.19 683.657 1079.35 682.586 1080.58C681.514 1081.81 681.606 1083.74 682.784 1084.77Z" fill="#FF6700" fill-opacity="0.13"/>
<path d="M478.931 951.041C480.11 952.072 482.038 951.904 483.11 950.678C484.181 949.452 484.09 947.519 482.912 946.489C481.733 945.458 479.805 945.626 478.733 946.852C477.661 948.078 477.753 950.011 478.931 951.041Z" fill="#FF6700" fill-opacity="0.13"/>
<path d="M503.172 972.234C504.351 973.264 506.279 973.097 507.351 971.871C508.423 970.645 508.331 968.711 507.153 967.681C505.974 966.651 504.046 966.819 502.974 968.045C501.903 969.27 501.994 971.204 503.172 972.234Z" fill="#FF6700" fill-opacity="0.13"/>
<path d="M527.413 993.427C528.592 994.457 530.52 994.289 531.592 993.064C532.664 991.838 532.572 989.904 531.394 988.874C530.215 987.844 528.287 988.011 527.215 989.237C526.143 990.463 526.235 992.397 527.413 993.427Z" fill="#FF6700" fill-opacity="0.13"/>
<path d="M551.654 1014.62C552.863 1015.68 554.734 1015.51 555.833 1014.26C556.932 1013 556.843 1011.12 555.635 1010.07C554.426 1009.01 552.555 1009.17 551.456 1010.43C550.357 1011.69 550.446 1013.56 551.654 1014.62Z" fill="#FF6700" fill-opacity="0.13"/>
<path d="M575.895 1035.81C577.074 1036.84 579.002 1036.67 580.074 1035.45C581.146 1034.22 581.054 1032.29 579.876 1031.26C578.697 1030.23 576.769 1030.4 575.697 1031.62C574.625 1032.85 574.717 1034.78 575.895 1035.81Z" fill="#FF6700" fill-opacity="0.13"/>
<path d="M600.136 1057C601.314 1058.04 603.243 1057.87 604.315 1056.64C605.386 1055.42 605.295 1053.48 604.116 1052.45C602.938 1051.42 601.009 1051.59 599.938 1052.82C598.866 1054.04 598.958 1055.97 600.136 1057Z" fill="#FF6700" fill-opacity="0.13"/>
<path d="M624.377 1078.2C625.556 1079.23 627.484 1079.06 628.556 1077.83C629.627 1076.61 629.536 1074.67 628.358 1073.64C627.179 1072.61 625.251 1072.78 624.179 1074.01C623.107 1075.23 623.199 1077.17 624.377 1078.2Z" fill="#FF6700" fill-opacity="0.13"/>
<path d="M444.765 965.661C445.944 966.692 447.872 966.524 448.944 965.298C450.016 964.072 449.924 962.139 448.746 961.109C447.567 960.078 445.639 960.246 444.567 961.472C443.496 962.698 443.587 964.631 444.765 965.661Z" fill="#FF6700" fill-opacity="0.13"/>
<path d="M469.007 986.854C470.215 987.911 472.086 987.748 473.185 986.491C474.284 985.234 474.196 983.358 472.987 982.301C471.778 981.245 469.908 981.407 468.808 982.664C467.709 983.922 467.798 985.797 469.007 986.854Z" fill="#FF6700" fill-opacity="0.13"/>
<path d="M493.247 1008.05C494.426 1009.08 496.354 1008.91 497.426 1007.68C498.498 1006.46 498.406 1004.52 497.228 1003.49C496.049 1002.46 494.121 1002.63 493.049 1003.86C491.977 1005.08 492.069 1007.02 493.247 1008.05Z" fill="#FF6700" fill-opacity="0.13"/>
<path d="M517.488 1029.24C518.667 1030.27 520.595 1030.1 521.667 1028.88C522.739 1027.65 522.647 1025.72 521.469 1024.69C520.29 1023.66 518.362 1023.82 517.29 1025.05C516.218 1026.28 516.31 1028.21 517.488 1029.24Z" fill="#FF6700" fill-opacity="0.13"/>
<path d="M541.73 1050.43C542.908 1051.46 544.837 1051.29 545.908 1050.07C546.98 1048.84 546.888 1046.91 545.71 1045.88C544.532 1044.85 542.603 1045.02 541.531 1046.24C540.46 1047.47 540.551 1049.4 541.73 1050.43Z" fill="#FF6700" fill-opacity="0.13"/>
<path d="M565.97 1071.62C567.149 1072.65 569.077 1072.49 570.149 1071.26C571.221 1070.04 571.129 1068.1 569.951 1067.07C568.772 1066.04 566.844 1066.21 565.772 1067.44C564.701 1068.66 564.792 1070.59 565.97 1071.62Z" fill="#FF6700" fill-opacity="0.13"/>
<path d="M590.211 1092.82C591.42 1093.87 593.291 1093.71 594.39 1092.45C595.489 1091.2 595.4 1089.32 594.192 1088.26C592.983 1087.21 591.112 1087.37 590.013 1088.63C588.914 1089.88 589.003 1091.76 590.211 1092.82Z" fill="#FF6700" fill-opacity="0.13"/>
<path d="M434.841 1001.47C436.019 1002.5 437.948 1002.34 439.019 1001.11C440.091 999.885 439.999 997.951 438.821 996.921C437.643 995.891 435.714 996.058 434.642 997.284C433.571 998.51 433.662 1000.44 434.841 1001.47Z" fill="#FF6700" fill-opacity="0.13"/>
<path d="M459.082 1022.67C460.26 1023.7 462.189 1023.53 463.26 1022.3C464.332 1021.08 464.24 1019.14 463.062 1018.11C461.884 1017.08 459.955 1017.25 458.883 1018.48C457.812 1019.7 457.903 1021.64 459.082 1022.67Z" fill="#FF6700" fill-opacity="0.13"/>
<path d="M483.323 1043.86C484.501 1044.89 486.429 1044.72 487.501 1043.5C488.573 1042.27 488.481 1040.34 487.303 1039.31C486.125 1038.28 484.196 1038.44 483.124 1039.67C482.053 1040.9 482.144 1042.83 483.323 1043.86Z" fill="#FF6700" fill-opacity="0.13"/>
<path d="M507.564 1065.05C508.742 1066.08 510.671 1065.91 511.742 1064.69C512.814 1063.46 512.723 1061.53 511.544 1060.5C510.366 1059.47 508.437 1059.64 507.366 1060.86C506.294 1062.09 506.385 1064.02 507.564 1065.05Z" fill="#FF6700" fill-opacity="0.13"/>
<path d="M531.805 1086.24C532.983 1087.27 534.912 1087.11 535.983 1085.88C537.055 1084.66 536.963 1082.72 535.785 1081.69C534.607 1080.66 532.678 1080.83 531.606 1082.06C530.535 1083.28 530.626 1085.21 531.805 1086.24Z" fill="#FF6700" fill-opacity="0.13"/>
<path d="M400.675 1016.09C401.853 1017.12 403.782 1016.96 404.854 1015.73C405.925 1014.5 405.834 1012.57 404.655 1011.54C403.477 1010.51 401.548 1010.68 400.477 1011.9C399.405 1013.13 399.497 1015.06 400.675 1016.09Z" fill="#FF6700" fill-opacity="0.13"/>
<path d="M424.916 1037.29C426.094 1038.32 428.023 1038.15 429.095 1036.92C430.166 1035.7 430.075 1033.76 428.896 1032.73C427.718 1031.7 425.789 1031.87 424.718 1033.1C423.646 1034.32 423.738 1036.26 424.916 1037.29Z" fill="#FF6700" fill-opacity="0.13"/>
<path d="M449.157 1058.48C450.336 1059.51 452.264 1059.34 453.336 1058.12C454.407 1056.89 454.316 1054.96 453.138 1053.93C451.959 1052.9 450.031 1053.06 448.959 1054.29C447.887 1055.52 447.979 1057.45 449.157 1058.48Z" fill="#FF6700" fill-opacity="0.13"/>
<path d="M473.398 1079.67C474.576 1080.7 476.505 1080.53 477.577 1079.31C478.648 1078.08 478.557 1076.15 477.378 1075.12C476.2 1074.09 474.271 1074.26 473.2 1075.48C472.128 1076.71 472.22 1078.64 473.398 1079.67Z" fill="#FF6700" fill-opacity="0.13"/>
<path d="M390.75 1051.91C391.929 1052.94 393.857 1052.77 394.929 1051.54C396.001 1050.32 395.909 1048.38 394.731 1047.35C393.552 1046.32 391.624 1046.49 390.552 1047.72C389.48 1048.94 389.572 1050.88 390.75 1051.91Z" fill="#FF6700" fill-opacity="0.13"/>
<path d="M414.991 1073.1C416.17 1074.13 418.098 1073.96 419.17 1072.74C420.242 1071.51 420.15 1069.58 418.972 1068.55C417.793 1067.52 415.865 1067.68 414.793 1068.91C413.721 1070.14 413.813 1072.07 414.991 1073.1Z" fill="#FF6700" fill-opacity="0.13"/>
<path d="M439.232 1094.29C440.411 1095.32 442.339 1095.15 443.411 1093.93C444.482 1092.7 444.391 1090.77 443.213 1089.74C442.034 1088.71 440.106 1088.88 439.034 1090.1C437.962 1091.33 438.054 1093.26 439.232 1094.29Z" fill="#FF6700" fill-opacity="0.13"/>
</g>
</g>
</g>
<defs>
<clipPath id="clip0">
<rect width="616.452" height="626.464" fill="white" transform="translate(-87.1094 -138.464) rotate(41.1616)"/>
</clipPath>
<clipPath id="clip1">
<rect width="698.085" height="709.423" fill="white" transform="translate(2047.39 -199.136) rotate(41.1616)"/>
</clipPath>
<clipPath id="clip2">
<rect width="698.085" height="709.423" fill="white" transform="translate(689.056 681.817) rotate(41.1616)"/>
</clipPath>
</defs>
</svg>
