<svg width="84" height="84" viewBox="0 0 84 84" fill="none" xmlns="http://www.w3.org/2000/svg">
<g clip-path="url(#clip0)">
<path d="M83.6849 18.1191C83.3618 17.5435 82.8211 17.1221 82.1843 16.949L67.4297 12.9409V7.54688C67.4297 6.18778 66.3279 5.08594 64.9688 5.08594H19.0313C17.6722 5.08594 16.5703 6.18778 16.5703 7.54688V12.9409L1.8157 16.9491C1.17881 17.1222 0.638057 17.5437 0.315182 18.1192C-0.00802094 18.6948 -0.0864428 19.3758 0.0974713 20.0096L16.6678 77.1387C16.6689 77.1428 16.6707 77.146 16.6721 77.1499C16.9726 78.1694 17.9143 78.9141 19.0313 78.9141H64.9688C66.0836 78.9141 67.024 78.1723 67.3265 77.1556C67.3285 77.1497 67.3305 77.1448 67.3323 77.1387L83.9026 20.0096C84.0863 19.3758 84.0081 18.6946 83.6849 18.1191ZM16.5703 59.1342L5.52187 21.0427L16.5703 18.0411V59.1342ZM62.5078 73.9922H21.4922V10.0078H62.5078V73.9922ZM67.4297 59.1344V18.0411L78.4783 21.0427L67.4297 59.1344Z" fill="#545454"/>
<path d="M29.2031 38.5129C29.2031 45.9892 39.5054 52.7513 40.6803 53.4978C41.0831 53.7538 41.5414 53.8817 42 53.8817C42.4586 53.8817 42.9171 53.7538 43.3199 53.4978C44.4946 52.7513 54.7969 45.9892 54.7969 38.5129C54.7969 33.8842 51.0312 30.1184 46.4025 30.1184C44.8358 30.1184 43.3122 30.5598 42 31.3671C40.688 30.5596 39.1643 30.1184 37.5975 30.1184C32.9689 30.1184 29.2031 33.8842 29.2031 38.5129ZM37.5975 35.0403C38.5916 35.0403 39.5069 35.4472 40.1745 36.1856C40.6411 36.7016 41.3042 36.9961 41.9998 36.9961C42.6955 36.9961 43.3586 36.7016 43.8252 36.1858C44.4931 35.4472 45.4082 35.0405 46.4023 35.0405C48.3171 35.0405 49.8748 36.5982 49.8748 38.513C49.8748 41.7065 45.4817 45.9336 42.0054 48.4413C39.0672 46.3009 34.125 41.9818 34.125 38.5129C34.125 36.5981 35.6828 35.0403 37.5975 35.0403Z" fill="#FF9600"/>
<path d="M55.125 68.25C56.4841 68.25 57.5859 67.1482 57.5859 65.7891C57.5859 64.4299 56.4841 63.3281 55.125 63.3281C53.7659 63.3281 52.6641 64.4299 52.6641 65.7891C52.6641 67.1482 53.7659 68.25 55.125 68.25Z" fill="#FF9600"/>
<path d="M30.5156 19.8516C31.8748 19.8516 32.9766 18.7498 32.9766 17.3906C32.9766 16.0315 31.8748 14.9297 30.5156 14.9297C29.1565 14.9297 28.0547 16.0315 28.0547 17.3906C28.0547 18.7498 29.1565 19.8516 30.5156 19.8516Z" fill="#FF9600"/>
</g>
<defs>
<clipPath id="clip0">
<rect width="84" height="84" fill="white"/>
</clipPath>
</defs>
</svg>
