<svg width="73" height="75" viewBox="0 0 73 75" fill="none" xmlns="http://www.w3.org/2000/svg">
<circle cx="18.8203" cy="19.6853" r="14.2578" fill="url(#paint0_linear)"/>
<g filter="url(#filter0_bi)">
<path d="M65.5837 32.8399C65.5837 32.8399 48.2345 17.1851 36.5187 0.864929C24.8019 17.1851 7.41729 32.8399 7.41729 32.8399C-3.96687 44.6022 0.993526 54.9498 1.555 55.9834C12.6628 75.914 33.2184 59.1331 33.8263 55.9964C32.8316 61.7142 29.5689 74.9599 29.5689 74.9599H36.532H43.4299C43.4299 74.9599 40.1694 61.7142 39.1747 55.9964C39.7826 59.132 60.3371 75.9205 71.4449 55.9899C72.0053 54.9564 76.9679 44.6022 65.5837 32.8399Z" fill="#1D1D1D" fill-opacity="0.05"/>
<path d="M65.5837 32.8399C65.5837 32.8399 48.2345 17.1851 36.5187 0.864929C24.8019 17.1851 7.41729 32.8399 7.41729 32.8399C-3.96687 44.6022 0.993526 54.9498 1.555 55.9834C12.6628 75.914 33.2184 59.1331 33.8263 55.9964C32.8316 61.7142 29.5689 74.9599 29.5689 74.9599H36.532H43.4299C43.4299 74.9599 40.1694 61.7142 39.1747 55.9964C39.7826 59.132 60.3371 75.9205 71.4449 55.9899C72.0053 54.9564 76.9679 44.6022 65.5837 32.8399Z" fill="url(#paint1_linear)" fill-opacity="0.2"/>
<path d="M43.2959 74.8336L43.3024 74.8599H36.532H29.6964L29.7029 74.8336L29.8082 74.4033C29.8993 74.0299 30.0307 73.4901 30.1914 72.8244C30.5129 71.4931 30.9519 69.6585 31.422 67.6451C32.3619 63.6193 33.4269 58.8757 33.9249 56.0136L33.7282 55.9774C33.6938 56.1549 33.5858 56.3916 33.4016 56.6781C33.2186 56.9628 32.9647 57.2899 32.6461 57.6474C32.0089 58.3621 31.1174 59.193 30.0281 60.0415C27.8492 61.7387 24.8861 63.5011 21.5979 64.5448C18.3099 65.5885 14.7028 65.9118 11.23 64.74C7.75912 63.5688 4.40967 60.8999 1.64256 55.9351C1.36671 55.4271 -0.00559084 52.5998 0.106494 48.4376C0.21852 44.2776 1.81348 38.7747 7.48677 32.9119L7.48743 32.9113L7.49696 32.9027L7.53465 32.8686C7.56797 32.8384 7.61757 32.7934 7.68274 32.734C7.81308 32.6153 8.00571 32.439 8.255 32.2089C8.75357 31.7486 9.47878 31.073 10.3856 30.2114C12.1992 28.488 14.7394 26.0203 17.6458 23.0424C23.4313 17.1145 30.6702 9.16297 36.5187 1.03627C42.3666 9.16294 49.5965 17.1145 55.373 23.0423C58.2749 26.0202 60.8106 28.488 62.6209 30.2113C63.526 31.073 64.2499 31.7486 64.7475 32.2088C64.9963 32.4389 65.1885 32.6152 65.3186 32.734C65.3836 32.7934 65.4331 32.8384 65.4664 32.8686L65.504 32.9027L65.5135 32.9113L65.5142 32.9119C71.1875 38.7747 72.7819 44.2792 72.8936 48.4409C73.0052 52.6054 71.6322 55.4345 71.3572 55.9419C68.5901 60.9065 65.2408 63.5749 61.7701 64.7453C58.2974 65.9164 54.6905 65.5922 51.4026 64.5477C48.1146 63.5031 45.1515 61.7398 42.9728 60.0421C41.8835 59.1933 40.992 58.3622 40.3549 57.6473C40.0363 57.2899 39.7824 56.9627 39.5993 56.678C39.4152 56.3915 39.3073 56.1549 39.2729 55.9774L39.0762 56.0136C39.5741 58.8757 40.6386 63.6193 41.5779 67.6451C42.0477 69.6585 42.4865 71.4931 42.8077 72.8244C42.9683 73.4901 43.0996 74.0299 43.1907 74.4033L43.2959 74.8336Z" stroke="url(#paint2_linear)" stroke-opacity="0.1" stroke-width="0.2"/>
</g>
<defs>
<filter id="filter0_bi" x="-17" y="-16.1351" width="107" height="108.095" filterUnits="userSpaceOnUse" color-interpolation-filters="sRGB">
<feFlood flood-opacity="0" result="BackgroundImageFix"/>
<feGaussianBlur in="BackgroundImage" stdDeviation="8.5"/>
<feComposite in2="SourceAlpha" operator="in" result="effect1_backgroundBlur"/>
<feBlend mode="normal" in="SourceGraphic" in2="effect1_backgroundBlur" result="shape"/>
<feColorMatrix in="SourceAlpha" type="matrix" values="0 0 0 0 0 0 0 0 0 0 0 0 0 0 0 0 0 0 127 0" result="hardAlpha"/>
<feOffset dy="1"/>
<feGaussianBlur stdDeviation="2"/>
<feComposite in2="hardAlpha" operator="arithmetic" k2="-1" k3="1"/>
<feColorMatrix type="matrix" values="0 0 0 0 1 0 0 0 0 0.3125 0 0 0 0 0.3125 0 0 0 0.25 0"/>
<feBlend mode="normal" in2="shape" result="effect2_innerShadow"/>
</filter>
<linearGradient id="paint0_linear" x1="0.570306" y1="3.14618" x2="38.1117" y2="11.6059" gradientUnits="userSpaceOnUse">
<stop stop-color="#E05500"/>
<stop offset="0.726262" stop-color="#FFA763"/>
</linearGradient>
<linearGradient id="paint1_linear" x1="14.2644" y1="20.8139" x2="81.2936" y2="34.5814" gradientUnits="userSpaceOnUse">
<stop stop-color="#FFF5D9"/>
<stop offset="1" stop-color="#FF6805"/>
</linearGradient>
<linearGradient id="paint2_linear" x1="2.28125" y1="4.23288" x2="73" y2="4.23288" gradientUnits="userSpaceOnUse">
<stop stop-color="#FFC282"/>
<stop offset="1" stop-color="#FF4980"/>
</linearGradient>
</defs>
</svg>
