<svg width="78" height="71" viewBox="0 0 78 71" fill="none" xmlns="http://www.w3.org/2000/svg">
<circle cx="59.4999" cy="52.5" r="12.5" transform="rotate(-132.887 59.4999 52.5)" fill="url(#paint0_linear)"/>
<g filter="url(#filter0_bi)">
<path d="M73.7862 11.3667C70.3899 4.54475 63.4035 0 55.1088 0C48.6284 0 42.1746 3.04559 38 7.98542C33.8254 3.04559 27.3704 0.00121193 20.8912 0.00121193C12.5965 0.00121193 5.61013 4.54353 2.21258 11.3667C0.792801 14.2135 0 17.4542 0 20.924C0 21.6718 0.0351011 22.4098 0.102883 23.1467C0.478102 27.1715 1.87125 31.0497 4.14556 34.9267C6.40656 38.7552 9.53782 42.6334 13.4002 46.7067C16.9272 50.3885 21.0655 54.2655 25.7098 58.4866C27.9199 60.45 30.2451 62.5393 32.6743 64.6905L38 70L43.3257 64.6917C45.7549 62.5406 48.0789 60.45 50.2902 58.4866C54.9345 54.2655 59.0728 50.3873 62.5998 46.7067C66.4622 42.6334 69.5934 38.7552 71.8544 34.9267C74.1287 31.0497 75.5219 27.1715 75.8971 23.1467C75.9649 22.4111 76 21.6718 76 20.924C75.9988 17.4542 75.206 14.2135 73.7862 11.3667Z" fill="#1D1D1D" fill-opacity="0.05"/>
<path d="M73.7862 11.3667C70.3899 4.54475 63.4035 0 55.1088 0C48.6284 0 42.1746 3.04559 38 7.98542C33.8254 3.04559 27.3704 0.00121193 20.8912 0.00121193C12.5965 0.00121193 5.61013 4.54353 2.21258 11.3667C0.792801 14.2135 0 17.4542 0 20.924C0 21.6718 0.0351011 22.4098 0.102883 23.1467C0.478102 27.1715 1.87125 31.0497 4.14556 34.9267C6.40656 38.7552 9.53782 42.6334 13.4002 46.7067C16.9272 50.3885 21.0655 54.2655 25.7098 58.4866C27.9199 60.45 30.2451 62.5393 32.6743 64.6905L38 70L43.3257 64.6917C45.7549 62.5406 48.0789 60.45 50.2902 58.4866C54.9345 54.2655 59.0728 50.3873 62.5998 46.7067C66.4622 42.6334 69.5934 38.7552 71.8544 34.9267C74.1287 31.0497 75.5219 27.1715 75.8971 23.1467C75.9649 22.4111 76 21.6718 76 20.924C75.9988 17.4542 75.206 14.2135 73.7862 11.3667Z" fill="url(#paint1_linear)" fill-opacity="0.2"/>
<path d="M73.6967 11.4113L73.6967 11.4113C75.1095 14.2442 75.8988 17.4697 75.9 20.924C75.9 21.6686 75.865 22.4048 75.7975 23.1374C75.424 27.1448 74.0367 31.009 71.7682 34.8761C69.5125 38.6955 66.3869 42.5674 62.5276 46.6375C59.0031 50.3155 54.867 54.1917 50.2233 58.4124C49.2409 59.2845 48.2371 60.1811 47.2119 61.0969C45.9279 62.2437 44.6103 63.4206 43.2594 64.6169L43.2593 64.6167L43.2551 64.6209L38 69.8588L32.7449 64.6197L32.745 64.6196L32.7406 64.6157C31.3531 63.387 30.0002 62.179 28.683 61.003C27.6939 60.1198 26.7249 59.2547 25.7767 58.4123C21.133 54.1917 16.997 50.3168 13.4726 46.6377C9.61321 42.5675 6.48753 38.6956 4.23182 34.8761C1.96331 31.009 0.576059 27.1448 0.202458 23.1375C0.134951 22.4036 0.1 21.6686 0.1 20.924C0.1 17.4696 0.889243 14.2442 2.30207 11.4113L2.3021 11.4113C5.68277 4.622 12.6345 0.101212 20.8912 0.101212C27.3405 0.101212 33.7677 3.13226 37.9236 8.04997L38 8.14035L38.0764 8.04997C42.2323 3.13225 48.6583 0.1 55.1088 0.1C63.3655 0.1 70.3172 4.6232 73.6967 11.4113Z" stroke="url(#paint2_linear)" stroke-opacity="0.1" stroke-width="0.2"/>
</g>
<defs>
<filter id="filter0_bi" x="-17" y="-17" width="110" height="104" filterUnits="userSpaceOnUse" color-interpolation-filters="sRGB">
<feFlood flood-opacity="0" result="BackgroundImageFix"/>
<feGaussianBlur in="BackgroundImage" stdDeviation="8.5"/>
<feComposite in2="SourceAlpha" operator="in" result="effect1_backgroundBlur"/>
<feBlend mode="normal" in="SourceGraphic" in2="effect1_backgroundBlur" result="shape"/>
<feColorMatrix in="SourceAlpha" type="matrix" values="0 0 0 0 0 0 0 0 0 0 0 0 0 0 0 0 0 0 127 0" result="hardAlpha"/>
<feOffset dy="1"/>
<feGaussianBlur stdDeviation="7.5"/>
<feComposite in2="hardAlpha" operator="arithmetic" k2="-1" k3="1"/>
<feColorMatrix type="matrix" values="0 0 0 0 1 0 0 0 0 0.3125 0 0 0 0 0.3125 0 0 0 0.25 0"/>
<feBlend mode="normal" in2="shape" result="effect2_innerShadow"/>
</filter>
<linearGradient id="paint0_linear" x1="45.3152" y1="51.6082" x2="82.1901" y2="53.7856" gradientUnits="userSpaceOnUse">
<stop stop-color="#E05500"/>
<stop offset="0.726262" stop-color="#FFA763"/>
</linearGradient>
<linearGradient id="paint1_linear" x1="14.8506" y1="18.8465" x2="84.034" y2="34.5058" gradientUnits="userSpaceOnUse">
<stop stop-color="#FFF5D9"/>
<stop offset="1" stop-color="#FF6805"/>
</linearGradient>
<linearGradient id="paint2_linear" x1="-2.5" y1="31.5" x2="79" y2="14.5" gradientUnits="userSpaceOnUse">
<stop stop-color="#FFC282"/>
<stop offset="1" stop-color="#E65A00"/>
</linearGradient>
</defs>
</svg>
