<svg width="87" height="78" viewBox="0 0 87 78" fill="none" xmlns="http://www.w3.org/2000/svg">
<circle cx="21.5" cy="23.5" r="12.5" fill="url(#paint0_linear)"/>
<g filter="url(#filter0_bi)">
<path d="M69.4384 28.4203C63.5411 28.3879 61.181 30.664 58.1696 32.0975C66.1962 22.9394 65.6541 0.0199441 43.5707 0C21.3618 0.0199441 20.8548 22.9394 28.8814 32.0975C25.87 30.664 23.4672 28.3879 17.5699 28.4203C-3.13331 30.851 -0.508392 49.2992 0.997298 54.5969C4.2659 64.8631 23.4835 77.9838 40.7048 54.6118C39.6697 61.9974 35.8063 77.9988 35.8063 77.9988H43.523H51.1807C51.1807 77.9988 47.3223 61.9961 46.2872 54.6118C63.5085 77.9838 82.7312 64.8693 85.9998 54.6044C87.5067 49.3067 90.1416 30.851 69.4384 28.4203Z" fill="#1D1D1D" fill-opacity="0.05"/>
<path d="M69.4384 28.4203C63.5411 28.3879 61.181 30.664 58.1696 32.0975C66.1962 22.9394 65.6541 0.0199441 43.5707 0C21.3618 0.0199441 20.8548 22.9394 28.8814 32.0975C25.87 30.664 23.4672 28.3879 17.5699 28.4203C-3.13331 30.851 -0.508392 49.2992 0.997298 54.5969C4.2659 64.8631 23.4835 77.9838 40.7048 54.6118C39.6697 61.9974 35.8063 77.9988 35.8063 77.9988H43.523H51.1807C51.1807 77.9988 47.3223 61.9961 46.2872 54.6118C63.5085 77.9838 82.7312 64.8693 85.9998 54.6044C87.5067 49.3067 90.1416 30.851 69.4384 28.4203Z" fill="url(#paint1_linear)" fill-opacity="0.2"/>
<path d="M51.0398 77.8405L51.0538 77.8988H43.523H35.9332L35.9472 77.8406C35.9758 77.7215 36.0178 77.546 36.0716 77.3199C36.1793 76.8679 36.3343 76.2138 36.5235 75.4059C36.9019 73.7902 37.4173 71.5588 37.965 69.0966C39.0602 64.1734 40.2857 58.323 40.8039 54.6257L40.6243 54.5525C32.0313 66.2146 22.9588 68.7524 15.6406 67.1211C8.31015 65.487 2.71712 59.6667 1.09306 54.568C0.342768 51.9273 -0.684168 46.014 1.05071 40.4633C1.91762 37.6897 3.4736 35.0081 6.09773 32.8684C8.72106 30.7293 12.4182 29.1267 17.576 28.5203C22.1607 28.4962 24.6092 29.8704 26.9076 31.1604C27.5486 31.5201 28.1778 31.8733 28.8384 32.1878L28.9566 32.0316C24.967 27.4795 23.093 19.4954 24.9841 12.6486C25.9289 9.22799 27.8124 6.09508 30.8375 3.81566C33.8624 1.53637 38.0361 0.104986 43.5707 0.1C49.0738 0.104986 53.226 1.53631 56.2366 3.81552C59.2474 6.0949 61.1236 9.22782 62.065 12.6485C63.9493 19.4955 62.084 27.4796 58.0944 32.0316L58.2126 32.1878C58.8805 31.8698 59.5142 31.5124 60.159 31.1487C62.4402 29.862 64.8615 28.4963 69.4323 28.5203C74.5902 29.1267 78.2866 30.7297 80.909 32.8695C83.5322 35.0099 85.0869 37.6924 85.9524 40.467C87.6847 46.0195 86.6549 51.9348 85.904 54.5756C84.2799 59.6736 78.6857 65.492 71.354 67.1243C64.0345 68.754 54.9607 66.2146 46.3677 54.5525L46.1882 54.6257C46.7064 58.3223 47.9306 64.1728 49.0245 69.0961C49.5716 71.5584 50.0863 73.7899 50.4643 75.4057C50.6532 76.2137 50.808 76.8678 50.9156 77.3199C50.9694 77.5459 51.0113 77.7215 51.0398 77.8405Z" stroke="url(#paint2_linear)" stroke-opacity="0.1" stroke-width="0.2"/>
</g>
<defs>
<filter id="filter0_bi" x="-17" y="-17" width="121" height="111.999" filterUnits="userSpaceOnUse" color-interpolation-filters="sRGB">
<feFlood flood-opacity="0" result="BackgroundImageFix"/>
<feGaussianBlur in="BackgroundImage" stdDeviation="8.5"/>
<feComposite in2="SourceAlpha" operator="in" result="effect1_backgroundBlur"/>
<feBlend mode="normal" in="SourceGraphic" in2="effect1_backgroundBlur" result="shape"/>
<feColorMatrix in="SourceAlpha" type="matrix" values="0 0 0 0 0 0 0 0 0 0 0 0 0 0 0 0 0 0 127 0" result="hardAlpha"/>
<feOffset dy="1"/>
<feGaussianBlur stdDeviation="2"/>
<feComposite in2="hardAlpha" operator="arithmetic" k2="-1" k3="1"/>
<feColorMatrix type="matrix" values="0 0 0 0 1 0 0 0 0 0.3125 0 0 0 0 0.3125 0 0 0 0.25 0"/>
<feBlend mode="normal" in2="shape" result="effect2_innerShadow"/>
</filter>
<linearGradient id="paint0_linear" x1="5.5" y1="9" x2="38.413" y2="16.4168" gradientUnits="userSpaceOnUse">
<stop stop-color="#E05500"/>
<stop offset="0.726262" stop-color="#FFA763"/>
</linearGradient>
<linearGradient id="paint1_linear" x1="17" y1="21" x2="95.9834" y2="39.3664" gradientUnits="userSpaceOnUse">
<stop stop-color="#FFF5D9"/>
<stop offset="1" stop-color="#FF6805"/>
</linearGradient>
<linearGradient id="paint2_linear" x1="2.71875" y1="3.5454" x2="83.5" y2="78" gradientUnits="userSpaceOnUse">
<stop stop-color="#FFC395"/>
<stop offset="0.961882" stop-color="#E36200"/>
</linearGradient>
</defs>
</svg>
