<svg width="78" height="74" viewBox="0 0 78 74" fill="none" xmlns="http://www.w3.org/2000/svg">
<path d="M59.0156 62.0375C59.0156 63.9943 60.5553 65.5656 62.4726 65.5656C64.3899 65.5656 65.9296 63.9943 65.9296 62.0375C65.9296 60.0808 64.3899 58.4799 62.4726 58.4799C60.5553 58.4799 59.0156 60.0808 59.0156 62.0375Z" fill="#FF9600"/>
<path d="M17.4299 55.3654H41.5417C43.1394 55.3654 44.4467 56.6995 44.4467 58.3301C44.4467 59.9607 43.1394 61.2949 41.5417 61.2949H17.4299C15.8322 61.2949 14.5249 59.9607 14.5249 58.3301C14.5249 56.6995 15.8322 55.3654 17.4299 55.3654Z" fill="#FF9600"/>
<path d="M69.7207 22.5024V11.859C69.7207 5.30689 64.5207 0 58.1006 0H11.6201C5.2 0 0 5.30689 0 11.859V38.5417C0 45.0938 5.2 50.4006 11.6201 50.4006H41.5419C43.1397 50.4006 44.4469 49.0665 44.4469 47.4359C44.4469 45.8053 43.1397 44.4712 41.5419 44.4712H11.6201C8.42458 44.4712 5.81006 41.8029 5.81006 38.5417V11.859C5.81006 8.59776 8.42458 5.92949 11.6201 5.92949H58.1006C61.2961 5.92949 63.9106 8.59776 63.9106 11.859V19.508C63.9106 21.1386 65.2179 22.4728 66.8156 22.4728" fill="#545454"/>
<path d="M65.4795 37.415H59.4371C58.8851 37.415 58.4493 37.8597 58.4493 38.423C58.4493 39.016 58.8851 39.4607 59.4371 39.4607H65.4795C66.0315 39.4607 66.4963 39.016 66.4963 38.423C66.4963 37.8597 66.0315 37.415 65.4795 37.415ZM65.4795 37.415H59.4371C58.8851 37.415 58.4493 37.8597 58.4493 38.423C58.4493 39.016 58.8851 39.4607 59.4371 39.4607H65.4795C66.0315 39.4607 66.4963 39.016 66.4963 38.423C66.4963 37.8597 66.0315 37.415 65.4795 37.415ZM70.5052 27.3645H54.4114C51.0996 27.3645 48.3979 30.1218 48.3979 33.5312V66.3806C48.3979 69.7604 51.0996 72.5176 54.4114 72.5176H70.5052C73.846 72.5176 76.5477 69.7604 76.5477 66.3806V33.5312C76.5477 30.1218 73.846 27.3645 70.5052 27.3645ZM74.5141 66.3806C74.5141 68.6338 72.713 70.4719 70.5052 70.4719H54.4114C52.2035 70.4719 50.4024 68.6338 50.4024 66.3806V33.5312C50.4024 31.278 52.2035 29.4399 54.4114 29.4399H70.5052C72.713 29.4399 74.5141 31.278 74.5141 33.5312V66.3806ZM65.4795 37.415H59.4371C58.8851 37.415 58.4493 37.8597 58.4493 38.423C58.4493 39.016 58.8851 39.4607 59.4371 39.4607H65.4795C66.0315 39.4607 66.4963 39.016 66.4963 38.423C66.4963 37.8597 66.0315 37.415 65.4795 37.415Z" fill="#838796"/>
<path d="M70.5051 74H54.4112C50.2861 74 46.9453 70.5905 46.9453 66.3806V33.5312C46.9453 29.3213 50.2861 25.8822 54.4112 25.8822H70.5051C74.6302 25.8822 78.0001 29.3213 78.0001 33.5312V66.3806C78.0001 70.5905 74.6302 74 70.5051 74ZM54.4112 30.9222C52.9878 30.9222 51.8548 32.0785 51.8548 33.5312V66.3806C51.8548 67.8333 53.0168 68.9895 54.4112 68.9895H70.5051C71.9286 68.9895 73.0615 67.8333 73.0615 66.3806V33.5312C73.0615 32.0785 71.8995 30.9222 70.5051 30.9222H54.4112ZM65.4794 40.9431H59.4369C58.0716 40.9431 56.9967 39.8461 56.9967 38.423C56.9967 37.0593 58.1006 35.9327 59.4369 35.9327H65.4794C66.8448 35.9327 67.9487 37.0593 67.9487 38.423C67.9487 39.8165 66.8448 40.9431 65.4794 40.9431Z" fill="#545454"/>
</svg>
