<svg width="60" height="66" viewBox="0 0 60 66" fill="none" xmlns="http://www.w3.org/2000/svg">
<g clip-path="url(#clip0)">
<path d="M46.5384 30.4356C46.6935 30.938 47.6449 32.8286 47.6449 33.3819C47.6449 34.9897 46.9386 36.4322 45.8168 37.4205C51.1516 41.8981 54.5461 48.5932 54.5461 56.0605C54.5461 58.5519 52.5074 60.5781 50.0007 60.5781H10.0007C7.49394 60.5781 5.4553 58.5519 5.4553 56.0605C5.4553 48.574 8.86642 41.8637 14.2248 37.3875C13.1251 36.3992 12.4354 34.9718 12.4354 33.3819C12.4354 32.8025 13.0838 30.9587 13.2542 30.4356C5.57743 35.841 0 46.0206 0 56.0619C0 61.5416 4.48722 66 10.0007 66H50.0007C55.5142 66 60 61.5416 60 56.0605C60 46.0647 54.1584 35.8465 46.5384 30.4356Z" fill="#545454"/>
<path d="M29.8913 29.0323C21.8378 29.0323 15.2856 22.5203 15.2856 14.5162C15.2856 6.51204 21.8378 0 29.8913 0C37.9447 0 44.4969 6.51204 44.4969 14.5162C44.4969 22.5203 37.9447 29.0323 29.8913 29.0323ZM29.8913 4.54233C24.3584 4.54233 19.856 9.01721 19.856 14.5162C19.856 20.0151 24.3584 24.49 29.8913 24.49C35.4241 24.49 39.9266 20.0151 39.9266 14.5162C39.9266 9.01721 35.4255 4.54233 29.8913 4.54233Z" fill="#545454"/>
</g>
<g clip-path="url(#clip1)">
<path d="M43.8405 41.9582C43.625 42.5904 43.0826 43.4321 41.7201 43.8508C41.3917 43.9521 41.0417 44.0027 40.6786 44.0027C37.8552 44.0027 34.4952 40.7347 32.8043 38.8667C32.1823 39.7015 31.1597 40.2503 30.0011 40.2503C28.8425 40.2503 27.8199 39.7001 27.1965 38.8667C25.507 40.732 22.1455 44.0014 19.3221 44.0014C18.959 44.0014 18.609 43.9494 18.2807 43.8495C16.9181 43.4307 16.3757 42.5904 16.1588 41.9582C15.5715 40.2325 16.7388 38.1017 17.4721 37.0014C16.7388 35.9011 15.5715 33.7717 16.1588 32.0446C16.3757 31.411 16.9181 30.5707 18.2807 30.1533C18.609 30.052 18.959 30.0014 19.3221 30.0014C22.1455 30.0014 25.5056 33.2708 27.1979 35.1374C27.8199 34.3026 28.8425 33.7539 30.0011 33.7539C31.1597 33.7539 32.1809 34.3026 32.8043 35.1374C34.4952 33.2694 37.8552 30.0014 40.6786 30.0014C41.0417 30.0014 41.3903 30.0534 41.7201 30.1533C43.0826 30.5707 43.625 31.4123 43.8405 32.0446C44.4278 33.7703 43.2605 35.9011 42.5272 37.0014C43.2591 38.1017 44.4263 40.2311 43.8405 41.9582ZM29.9996 35.9161C29.3661 35.9161 28.8512 36.4033 28.8512 37.0014C28.8512 37.6008 29.3661 38.088 29.9996 38.088C30.6332 38.088 31.1467 37.6008 31.1467 37.0014C31.1481 36.402 30.6332 35.9161 29.9996 35.9161Z" fill="#FF9600"/>
<circle cx="29.9995" cy="37.0021" r="1.92184" fill="#FF9600"/>
</g>
<defs>
<clipPath id="clip0">
<rect width="60" height="66" fill="white"/>
</clipPath>
<clipPath id="clip1">
<rect width="28" height="14" fill="white" transform="matrix(1 0 0 -1 16 44)"/>
</clipPath>
</defs>
</svg>
