<svg width="58" height="79" viewBox="0 0 58 79" fill="none" xmlns="http://www.w3.org/2000/svg">
<circle cx="13.5" cy="59.5" r="12.5" fill="url(#paint0_linear)"/>
<g filter="url(#filter0_bi)">
<path d="M29 0C20.5698 13.4468 0 39.6681 0 39.6681C14.5 57.1489 29 79 29 79C29 79 43.5 57.1489 58 39.6681C58 39.6681 37.4302 13.4468 29 0Z" fill="#1D1D1D" fill-opacity="0.05"/>
<path d="M29 0C20.5698 13.4468 0 39.6681 0 39.6681C14.5 57.1489 29 79 29 79C29 79 43.5 57.1489 58 39.6681C58 39.6681 37.4302 13.4468 29 0Z" fill="url(#paint1_linear)" fill-opacity="0.2"/>
<path d="M29 78.8196L28.9168 78.6948C28.807 78.5304 28.6441 78.287 28.4316 77.9711C28.0067 77.3393 27.3835 76.4173 26.5904 75.2562C25.0042 72.9341 22.7382 69.656 20.019 65.8314C14.5937 58.2007 7.36353 48.3939 0.128437 39.6663L0.137994 39.6541L0.311847 39.4319C0.464598 39.2365 0.689716 38.9483 0.979215 38.5766C1.55821 37.8332 2.39474 36.7563 3.4249 35.422C5.48522 32.7534 8.32015 29.0552 11.4186 24.9367C17.5734 16.7556 24.7704 6.91273 29 0.188043C33.2296 6.91273 40.4266 16.7556 46.5814 24.9367C49.6798 29.0552 52.5148 32.7534 54.5751 35.422C55.6053 36.7563 56.4418 37.8332 57.0208 38.5766C57.3103 38.9483 57.5354 39.2365 57.6882 39.4319L57.862 39.6541L57.8716 39.6663C50.6365 48.3939 43.4063 58.2007 37.981 65.8314C35.2618 69.656 32.9958 72.9341 31.4096 75.2562C30.6165 76.4173 29.9933 77.3393 29.5684 77.9711C29.3559 78.287 29.193 78.5304 29.0832 78.6948L29 78.8196Z" stroke="url(#paint2_linear)" stroke-opacity="0.1" stroke-width="0.2"/>
</g>
<defs>
<filter id="filter0_bi" x="-17" y="-17" width="92" height="113" filterUnits="userSpaceOnUse" color-interpolation-filters="sRGB">
<feFlood flood-opacity="0" result="BackgroundImageFix"/>
<feGaussianBlur in="BackgroundImage" stdDeviation="8.5"/>
<feComposite in2="SourceAlpha" operator="in" result="effect1_backgroundBlur"/>
<feBlend mode="normal" in="SourceGraphic" in2="effect1_backgroundBlur" result="shape"/>
<feColorMatrix in="SourceAlpha" type="matrix" values="0 0 0 0 0 0 0 0 0 0 0 0 0 0 0 0 0 0 127 0" result="hardAlpha"/>
<feOffset dy="1"/>
<feGaussianBlur stdDeviation="7.5"/>
<feComposite in2="hardAlpha" operator="arithmetic" k2="-1" k3="1"/>
<feColorMatrix type="matrix" values="0 0 0 0 1 0 0 0 0 0.3125 0 0 0 0 0.3125 0 0 0 0.25 0"/>
<feBlend mode="normal" in2="shape" result="effect2_innerShadow"/>
</filter>
<linearGradient id="paint0_linear" x1="-2.5" y1="45" x2="30.413" y2="52.4168" gradientUnits="userSpaceOnUse">
<stop stop-color="#E05500"/>
<stop offset="0.726262" stop-color="#FFA763"/>
</linearGradient>
<linearGradient id="paint1_linear" x1="11.3333" y1="21.2696" x2="65.5656" y2="29.5703" gradientUnits="userSpaceOnUse">
<stop stop-color="#FFF5D9"/>
<stop offset="1" stop-color="#FF6805"/>
</linearGradient>
<linearGradient id="paint2_linear" x1="1.8125" y1="3.59091" x2="58" y2="3.59091" gradientUnits="userSpaceOnUse">
<stop stop-color="#FFC282"/>
<stop offset="1" stop-color="#EB7223"/>
</linearGradient>
</defs>
</svg>
